<?xml version="1.0" encoding="UTF-8"?>
<svg version="1.1" xmlns="http://www.w3.org/2000/svg" width="832" height="468">
<path d="M0 0 C0.80535297 -0.00538554 1.61070594 -0.01077108 2.44046354 -0.01631981 C5.13042848 -0.0305908 7.81990072 -0.02349789 10.5098877 -0.01637268 C12.44190364 -0.02207665 14.3739162 -0.02904101 16.30592346 -0.03717041 C21.547588 -0.05511261 26.78908523 -0.05393158 32.03077126 -0.04822803 C36.40718209 -0.04513815 40.7835607 -0.0512263 45.15996695 -0.05726677 C55.48350295 -0.07131348 65.8069562 -0.06974908 76.13049316 -0.05836487 C86.78129202 -0.04687933 97.43183919 -0.06096638 108.08260489 -0.08776134 C117.22840954 -0.10990879 126.37413513 -0.11655799 135.51996469 -0.11068493 C140.98183119 -0.10731238 146.4435363 -0.10975049 151.90538025 -0.12693596 C157.04038146 -0.14238804 162.17500929 -0.13846873 167.30999565 -0.11963081 C169.19417181 -0.11594034 171.07837553 -0.11906672 172.96252632 -0.1295166 C175.53542643 -0.14269678 178.10708499 -0.13120603 180.67993164 -0.11352539 C181.42487869 -0.1231304 182.16982574 -0.1327354 182.93734694 -0.14263147 C188.03448686 -0.07059891 190.89525639 1.21233451 194.83996582 4.38768005 C198.97657973 8.99354675 198.26206517 14.56407071 198.22814941 20.41673279 C198.23603485 22.08586227 198.23603485 22.08586227 198.24407959 23.78871155 C198.25728121 27.46637517 198.24853994 31.14360578 198.23840332 34.8212738 C198.24042414 37.37808312 198.24333565 39.93489188 198.24710083 42.49169922 C198.25152454 47.85072345 198.2453785 53.20959267 198.2310791 58.56858826 C198.21476158 64.75516802 198.220036 70.94145102 198.23655832 77.12802356 C198.2518393 83.08943353 198.25018767 89.05075168 198.24141312 95.01217842 C198.23941232 97.54431767 198.24186614 100.07646449 198.24885178 102.60859489 C198.25647476 106.14901118 198.24484884 109.68885882 198.22814941 113.22923279 C198.23422211 114.27514084 198.2402948 115.32104889 198.24655151 116.39865112 C198.19927323 121.8122394 197.92724784 125.73233463 194.83996582 130.38768005 C189.64620682 135.44106719 184.27817173 136.63659636 177.17956543 136.64646912 C175.22239845 136.6559256 175.22239845 136.6559256 173.22569275 136.66557312 C171.81456364 136.66199338 170.40343577 136.65789143 168.99230957 136.65330505 C167.53312617 136.65465374 166.07394322 136.65659597 164.61476135 136.65910339 C161.56437886 136.66204415 158.5141139 136.65779025 155.46374512 136.64842224 C151.56098312 136.6370181 147.65849595 136.64359978 143.75574398 136.65556717 C140.74538616 136.6628055 137.73509316 136.66048897 134.72473335 136.65531158 C133.28587371 136.65398107 131.84700812 136.65560179 130.40815544 136.66027069 C128.39576205 136.66536924 126.38334792 136.6562159 124.37097168 136.64646912 C123.22768906 136.64487793 122.08440643 136.64328674 120.90647888 136.64164734 C117.76875412 136.38178233 115.61743822 135.85524905 112.83996582 134.38768005 C110.83996582 131.38768005 110.83996582 131.38768005 110.96496582 128.38768005 C112.00391587 124.82556561 112.66302757 124.18797104 115.83996582 122.38768005 C118.90252686 121.98895264 118.90252686 121.98895264 122.53625488 121.95530701 C123.21076565 121.94503322 123.88527641 121.93475943 124.5802269 121.92417431 C126.7554403 121.89437454 128.93020181 121.88475877 131.10559082 121.8759613 C132.45179822 121.86049057 133.79799105 121.84369287 135.14416504 121.82554626 C140.12593784 121.76768119 145.10798201 121.73547843 150.08996582 121.70018005 C161.22746582 121.59705505 172.36496582 121.49393005 183.83996582 121.38768005 C183.83996582 88.38768005 183.83996582 55.38768005 183.83996582 21.38768005 C168.98996582 36.23768005 168.98996582 36.23768005 153.83996582 51.38768005 C151.19996582 53.69768005 148.55996582 56.00768005 145.83996582 58.38768005 C144.32109292 59.83608524 142.81756838 61.30099849 141.3392334 62.79075623 C140.55514603 63.57814682 139.77105865 64.36553741 138.96321106 65.17678833 C138.14523544 66.00306229 137.32725983 66.82933624 136.48449707 67.6806488 C135.61983322 68.54909927 134.75516937 69.41754974 133.86430359 70.31231689 C131.12457173 73.06417838 128.38811915 75.81926441 125.65246582 78.57518005 C122.03687271 82.21739803 118.41796282 85.85627295 114.79699707 89.4931488 C113.56092461 90.74166878 113.56092461 90.74166878 112.29988098 92.01541138 C108.62992331 95.70101868 105.02338653 99.2739348 100.83996582 102.38768005 C100.17996582 102.05768005 99.51996582 101.72768005 98.83996582 101.38768005 C97.8312296 94.04583466 97.33771625 87.00456806 101.71984863 80.6703949 C106.83769533 74.76346697 112.56412307 69.06889926 118.83996582 64.38768005 C119.49996582 64.38768005 120.15996582 64.38768005 120.83996582 64.38768005 C120.83996582 63.72768005 120.83996582 63.06768005 120.83996582 62.38768005 C122.28811646 60.96200562 122.28811646 60.96200562 124.30334473 59.29759216 C128.9230466 55.36680655 133.17192793 51.148809 137.42590332 46.8290863 C139.03124343 45.21112011 140.6367159 43.59328525 142.24230957 41.97557068 C144.74599414 39.44691355 147.2480381 36.91667102 149.74768066 34.38401794 C152.17778367 31.92389907 154.61391579 29.46988273 157.05090332 27.0165863 C157.80294037 26.25108963 158.55497742 25.48559296 159.32980347 24.69689941 C160.02457794 23.99874619 160.71935242 23.30059296 161.43518066 22.58128357 C162.04614594 21.96286087 162.65711121 21.34443817 163.28659058 20.70727539 C164.83996582 19.38768005 164.83996582 19.38768005 166.83996582 19.38768005 C166.83996582 18.72768005 166.83996582 18.06768005 166.83996582 17.38768005 C167.82996582 16.89268005 167.82996582 16.89268005 168.83996582 16.38768005 C117.02996582 16.38768005 65.21996582 16.38768005 11.83996582 16.38768005 C21.15624577 25.83787997 21.15624577 25.83787997 30.83389282 34.64875793 C38.09136755 40.93974702 44.94453987 47.71948797 51.82932186 54.41409779 C54.57161112 57.07889255 57.32774895 59.72488716 60.12341309 62.33372498 C80.74267109 81.60792261 80.74267109 81.60792261 81.76661682 91.47622681 C81.7874461 94.89690211 81.48460073 98.0262745 80.83996582 101.38768005 C78.90246582 101.07518005 78.90246582 101.07518005 76.83996582 100.38768005 C76.50996582 99.39768005 76.17996582 98.40768005 75.83996582 97.38768005 C74.5221527 96.6908366 73.18607428 96.02815975 71.83996582 95.38768005 C69.9879303 93.77615356 69.9879303 93.77615356 68.06872559 91.8434906 C66.98223473 90.75677315 66.98223473 90.75677315 65.87379456 89.64810181 C65.10079514 88.86477982 64.32779572 88.08145782 63.53137207 87.2743988 C62.72763657 86.4678334 61.92390106 85.66126801 61.09580994 84.83026123 C58.52662912 82.24989129 55.96447566 79.66266818 53.40246582 77.07518005 C51.68092179 75.34360164 49.9589217 73.6124765 48.2364502 71.88182068 C45.06832647 68.69736929 41.9028373 65.51035034 38.74060059 62.3200531 C37.44044613 61.00920542 36.14024082 59.69840817 34.83996582 58.38768005 C34.3215361 57.86442642 33.80310638 57.34117279 33.26896667 56.80206299 C31.1077239 54.62820849 28.9481725 52.58295191 26.52746582 50.70018005 C25.64059082 49.93705505 24.75371582 49.17393005 23.83996582 48.38768005 C23.83996582 47.72768005 23.83996582 47.06768005 23.83996582 46.38768005 C23.29179199 46.16547791 22.74361816 45.94327576 22.17883301 45.71434021 C19.12243582 43.98068026 16.8549763 41.6501428 14.41809082 39.16111755 C13.91324158 38.65343842 13.40839233 38.14575928 12.88824463 37.62269592 C11.28404486 36.00734163 9.68695726 34.38515796 8.08996582 32.76268005 C7.00058475 31.66326308 5.91074592 30.56429947 4.82043457 29.46580505 C2.15494697 26.77831986 -0.50418561 24.08468984 -3.16003418 21.38768005 C-3.18315528 34.2784026 -3.20094807 47.16912025 -3.21184635 60.05985928 C-3.21707569 66.04487271 -3.22417426 72.02987202 -3.23547363 78.01487732 C-3.24630071 83.78551435 -3.25231063 89.55613774 -3.25491142 95.32678413 C-3.256766 97.53370949 -3.26038722 99.74063405 -3.26576424 101.94755363 C-3.27297228 105.02714047 -3.27402522 108.10667019 -3.27355957 111.18626404 C-3.27715485 112.10839188 -3.28075012 113.03051971 -3.28445435 113.98059082 C-3.68624869 118.00350578 -3.68624869 118.00350578 -2.16003418 121.38768005 C1.60694819 121.59170919 5.36741892 121.73441508 9.13879395 121.81736755 C12.67228555 121.9549244 15.21534487 122.06387349 18.38684082 123.70799255 C19.83996582 125.38768005 19.83996582 125.38768005 20.27746582 128.88768005 C19.83996582 132.38768005 19.83996582 132.38768005 18.83996582 134.26268005 C12.1457941 138.02815164 0.76894853 137.19494429 -6.53503418 135.63768005 C-11.33180029 133.98362277 -13.98145234 132.18023284 -16.77149963 127.93673706 C-18.69543264 123.01921596 -18.586896 118.58890845 -18.56408691 113.35276794 C-18.57095016 112.25122879 -18.57781342 111.14968964 -18.58488464 110.01477051 C-18.6031599 106.37982734 -18.59931395 102.74531548 -18.59362793 99.1103363 C-18.59818932 96.57977152 -18.60349477 94.04920798 -18.60951233 91.51864624 C-18.61844487 86.21687707 -18.6162529 80.91526456 -18.6060791 75.61351013 C-18.59460024 69.49673385 -18.60867337 63.38039615 -18.63547558 57.26367766 C-18.66034972 51.36473753 -18.66280284 45.46593307 -18.65635872 39.5669384 C-18.65620543 37.06352954 -18.66225592 34.56011227 -18.67465019 32.05673409 C-18.68954561 28.5548208 -18.67889241 25.05387009 -18.66174316 21.55198669 C-18.67141113 20.5205957 -18.6810791 19.48920471 -18.69104004 18.42655945 C-18.62759398 12.23194356 -18.03181703 8.32682293 -14.16003418 3.38768005 C-9.47313742 0.43200441 -5.41203584 -0.04366294 0 0 Z " fill="#008BFE" transform="translate(33.1600341796875,155.61231994628906)"/>
<path d="M0 0 C6.93 0 13.86 0 21 0 C21.01458252 1.9073291 21.02916504 3.8146582 21.04418945 5.77978516 C21.0959163 12.09429045 21.16122248 18.40854215 21.23571491 24.72281837 C21.28036877 28.54972843 21.31963555 32.37653325 21.34643555 36.20361328 C21.37251875 39.89965759 21.41295576 43.59529587 21.46318626 47.2910881 C21.47982125 48.69836741 21.49135648 50.10571689 21.49761391 51.5130806 C21.50729081 53.49011701 21.53707786 55.46702359 21.56762695 57.44384766 C21.57873001 58.56747711 21.58983307 59.69110657 21.60127258 60.8487854 C22.22315936 65.76366863 23.89796135 69.00547731 27.5625 72.3125 C32.74830385 75.90267189 37.82651149 75.58910413 44 75 C48.01230528 73.02904302 50.71240216 70.85279636 53 67 C54.10501814 63.58453854 54.15527728 60.33733695 54.20532227 56.76269531 C54.22526749 55.50169006 54.24521271 54.24068481 54.26576233 52.94146729 C54.28274401 51.57035443 54.29962291 50.1992403 54.31640625 48.828125 C54.33698835 47.42136033 54.35798515 46.01460167 54.37937927 44.60784912 C54.43447035 40.91226073 54.48393655 37.21661774 54.53222656 33.52093506 C54.58253649 29.74698041 54.63817293 25.97310468 54.69335938 22.19921875 C54.80078231 14.79954425 54.90176973 7.39980329 55 0 C61.93 0 68.86 0 76 0 C76.06805119 8.30224557 76.1229737 16.60427058 76.15543652 24.90672112 C76.17102498 28.76279014 76.19213675 32.61865678 76.22631836 36.47460938 C76.25915757 40.20289191 76.27690416 43.93098101 76.28463173 47.65939713 C76.29013155 49.07461716 76.30087012 50.48982783 76.31719017 51.90496445 C76.46653221 65.40397421 74.78686601 74.75508305 65.40625 84.6875 C56.54902463 93.04337299 45.26718828 94.4576229 33.609375 94.28515625 C23.57773969 93.87841309 15.19738528 89.58107503 8.375 82.3125 C1.87855989 74.5943842 -0.13355141 66.50860315 -0.11352539 56.53564453 C-0.11344986 55.27479034 -0.11337433 54.01393616 -0.11329651 52.71487427 C-0.10819109 51.3541866 -0.10297511 49.99349935 -0.09765625 48.6328125 C-0.09578912 47.22891287 -0.09436661 45.82501258 -0.09336853 44.42111206 C-0.08956658 40.74192478 -0.07975633 37.06277752 -0.06866455 33.38360596 C-0.05840031 29.62293031 -0.0538602 25.86224814 -0.04882812 22.1015625 C-0.03813179 14.73435472 -0.02055401 7.36718809 0 0 Z " fill="#ECEDEE" transform="translate(299,187)"/>
<path d="M0 0 C6.27 0 12.54 0 19 0 C19 30.36 19 60.72 19 92 C13.06 92 7.12 92 1 92 C1 90.02 1 88.04 1 86 C0.41992188 86.40992188 -0.16015625 86.81984375 -0.7578125 87.2421875 C-8.02445507 92.25449211 -14.04854439 95.12068302 -23 94 C-31.98370782 91.77618484 -38.47494856 87.94415726 -43.75 80.3125 C-49.56605576 70.17759095 -50.80966258 58.01700814 -47.875 46.75 C-44.71057089 37.71086686 -39.23584896 30.91494212 -31 26 C-24.68763183 23.12171892 -18.74627106 22.19209643 -12 24 C-7.50097163 25.73826096 -4.43367917 27.56632083 -1 31 C-0.67 20.77 -0.34 10.54 0 0 Z M-22 42 C-22 42.66 -22 43.32 -22 44 C-22.8971875 44.309375 -22.8971875 44.309375 -23.8125 44.625 C-26.99230269 46.62373312 -27.68203894 48.48543716 -29 52 C-30.41398986 58.45470181 -30.57830961 64.24914527 -27 70 C-24.16744494 73.02842322 -21.05531127 75.77450722 -16.828125 76.23828125 C-11.0210173 76.40545556 -7.4487846 76.13101427 -3 72 C1.16500068 66.25905312 2.7406735 60.71692072 1.62890625 53.63671875 C0.26458832 48.59467421 -1.86899865 45.2608871 -6.0390625 42.09375 C-11.36644714 39.1223004 -16.46217502 39.64642438 -22 42 Z " fill="#00E4C7" transform="translate(797,187)"/>
<path d="M0 0 C6.6 0 13.2 0 20 0 C20.495 15.345 20.495 15.345 21 31 C23.64 29.02 26.28 27.04 29 25 C35.96143999 22.26514857 42.08942967 22.10079487 49.0625 24.5625 C55.8575458 27.53141232 60.48696145 31.88929259 63.36393738 38.78315735 C64.67828254 43.36398998 64.3607724 48.1130141 64.29296875 52.83984375 C64.28872391 53.96193741 64.28447906 55.08403107 64.28010559 56.24012756 C64.26338097 59.80616767 64.22573922 63.37163215 64.1875 66.9375 C64.17244517 69.36262202 64.15875817 71.78775294 64.14648438 74.21289062 C64.11349764 80.14214716 64.06175737 86.07097615 64 92 C57.73 92 51.46 92 45 92 C44.95101562 89.10992187 44.90203125 86.21984375 44.8515625 83.2421875 C44.79749817 80.4322406 44.7402121 77.62237649 44.68261719 74.8125 C44.64441767 72.86497202 44.60954925 70.91737565 44.578125 68.96972656 C44.53227804 66.16446554 44.47431634 63.35967161 44.4140625 60.5546875 C44.40251129 59.68883026 44.39096008 58.82297302 44.37905884 57.93087769 C44.20900633 49.8884873 44.20900633 49.8884873 40.21484375 43.15625 C36.02618769 40.96957947 31.57889698 41.26059293 27 42 C23.58688333 44.52570633 22.33362232 45.99913304 21 50 C20.88705254 51.39579273 20.82410813 52.79599909 20.79467773 54.19604492 C20.77473251 55.03668991 20.75478729 55.8773349 20.73423767 56.74345398 C20.70916893 58.09827629 20.70916893 58.09827629 20.68359375 59.48046875 C20.66281265 60.40845779 20.64203156 61.33644684 20.62062073 62.29255676 C20.55522677 65.2574624 20.49628738 68.22245672 20.4375 71.1875 C20.39430513 73.1972748 20.35069053 75.20704063 20.30664062 77.21679688 C20.19876571 82.14444167 20.09961668 87.07215361 20 92 C13.4 92 6.8 92 0 92 C0 61.64 0 31.28 0 0 Z " fill="#F2F2F3" transform="translate(458,187)"/>
<path d="M0 0 C6.6 0 13.2 0 20 0 C20.33 16.5 20.66 33 21 50 C25.40928901 44.96081256 29.67519699 39.97545661 33.75 34.6875 C35.48215316 32.44238138 37.23106708 30.21679969 39 28 C39.44029541 27.44763672 39.88059082 26.89527344 40.33422852 26.32617188 C42.64293701 24.48813809 44.18207884 24.65633663 47.10546875 24.70703125 C48.08837891 24.71669922 49.07128906 24.72636719 50.08398438 24.73632812 C51.10814453 24.76146484 52.13230469 24.78660156 53.1875 24.8125 C54.74114258 24.83280273 54.74114258 24.83280273 56.32617188 24.85351562 C58.88463699 24.88888611 61.4420578 24.93824456 64 25 C61.24789888 29.34406594 58.22233214 33.13306799 54.6875 36.875 C53.71167131 37.92525354 52.73641127 38.97603571 51.76171875 40.02734375 C51.29040527 40.53378418 50.8190918 41.04022461 50.33349609 41.56201172 C48.53446024 43.50201926 46.7589189 45.46106022 45 47.4375 C44.484375 48.01371094 43.96875 48.58992188 43.4375 49.18359375 C41.73148699 51.33928953 40.37136517 53.62051817 39 56 C39.66644531 56.84820312 40.33289063 57.69640625 41.01953125 58.5703125 C41.45958496 59.13041016 41.89963867 59.69050781 42.35302734 60.26757812 C43.33631108 61.51897034 44.31971191 62.77027057 45.30322266 64.02148438 C47.87282914 67.29085341 50.44061943 70.5616106 53.00390625 73.8359375 C53.48561279 74.45065918 53.96731934 75.06538086 54.46362305 75.69873047 C55.37858375 76.86644886 56.29285235 78.03471001 57.20629883 79.20361328 C59.35793392 81.94799995 61.5441831 84.63882852 63.8203125 87.28125 C66 90 66 90 66 92 C46.23455289 95.0084209 46.23455289 95.0084209 39.60205078 90.29638672 C34.73962464 85.17895028 31.45550782 79.11108651 28 73 C25.69 69.7 23.38 66.4 21 63 C20.67 72.57 20.34 82.14 20 92 C16.885625 92.020625 13.77125 92.04125 10.5625 92.0625 C9.08825562 92.07615601 9.08825562 92.07615601 7.58422852 92.09008789 C6.81522217 92.09258545 6.04621582 92.09508301 5.25390625 92.09765625 C4.46314697 92.10289307 3.6723877 92.10812988 2.85766602 92.11352539 C1 92 1 92 0 91 C-0.09520906 88.16959328 -0.12553631 85.36365007 -0.11352539 82.53295898 C-0.11367142 81.64523804 -0.11381744 80.75751709 -0.1139679 79.84289551 C-0.11326843 76.89393716 -0.10547448 73.94504113 -0.09765625 70.99609375 C-0.09579219 68.95728083 -0.09436823 66.91846746 -0.09336853 64.87965393 C-0.08954241 59.50215426 -0.07971132 54.12468142 -0.06866455 48.74719238 C-0.05845245 43.26440799 -0.05387134 37.78161928 -0.04882812 32.29882812 C-0.03808914 21.53253838 -0.02049158 10.76627561 0 0 Z " fill="#ECEDEE" transform="translate(685,187)"/>
<path d="M0 0 C4.01819391 2.83082154 8.10737241 6.6987501 9.66796875 11.453125 C10.78501438 18.10220615 9.81174996 22.93161283 5.99609375 28.40625 C3.8414536 30.66646272 1.61792795 32.701412 -1.00390625 34.40625 C-1.66390625 34.40625 -2.32390625 34.40625 -3.00390625 34.40625 C-2.99724442 35.17331268 -2.99058258 35.94037537 -2.98371887 36.73068237 C-2.92334105 43.99732338 -2.87779738 51.26384091 -2.84846973 58.53066826 C-2.83288468 62.2656725 -2.81177941 66.00046763 -2.77758789 69.73535156 C-2.74473616 73.34692535 -2.72699955 76.95829934 -2.71927452 80.57001114 C-2.71377689 81.9405748 -2.70304277 83.31112885 -2.68671608 84.68160629 C-2.54154126 97.38528729 -3.72191496 105.99530573 -12.73828125 115.2734375 C-20.2522411 122.34692384 -27.86239946 123.93032707 -37.9140625 123.71484375 C-46.97154669 122.8102404 -53.87550098 119.04173372 -60.00390625 112.40625 C-65.45010554 105.52684037 -66.30626499 98.66325428 -66.19921875 90.19140625 C-66.19638885 89.33566513 -66.19355896 88.47992401 -66.19064331 87.59825134 C-66.1795256 84.88827009 -66.15443707 82.17862991 -66.12890625 79.46875 C-66.11886556 77.62174959 -66.10974162 75.77474396 -66.1015625 73.92773438 C-66.07961388 69.42044323 -66.04514279 64.91340427 -66.00390625 60.40625 C-62.14586031 61.69226531 -61.52812299 63.20783656 -59.31640625 66.578125 C-58.61773437 67.63515625 -57.9190625 68.6921875 -57.19921875 69.78125 C-56.4673543 70.9061891 -55.73558431 72.03118966 -55.00390625 73.15625 C-54.27945313 74.25453125 -53.555 75.3528125 -52.80859375 76.484375 C-50.85848757 79.44911206 -48.91571059 82.41667127 -47.00390625 85.40625 C-46.41222656 86.28700195 -45.82054688 87.16775391 -45.2109375 88.07519531 C-44.81261719 88.84444336 -44.41429688 89.61369141 -44.00390625 90.40625 C-44.33390625 91.39625 -44.66390625 92.38625 -45.00390625 93.40625 C-47.64390625 93.07625 -50.28390625 92.74625 -53.00390625 92.40625 C-51.72925879 98.54883682 -50.33063042 103.48075501 -45.16015625 107.34765625 C-39.84489821 109.95713982 -33.66263733 110.08979881 -28.00390625 108.53125 C-26.51890625 107.974375 -26.51890625 107.974375 -25.00390625 107.40625 C-24.01390625 107.07625 -23.02390625 106.74625 -22.00390625 106.40625 C-20.88455552 104.75994807 -20.88455552 104.75994807 -20.00390625 102.40625 C-19.49883545 101.32279297 -18.99376465 100.23933594 -18.47338867 99.12304688 C-16.23065502 93.08585495 -16.52417955 86.86412465 -16.4921875 80.5 C-16.47531407 79.16620255 -16.4571603 77.83242075 -16.43778992 76.49865723 C-16.39057207 73.01355887 -16.36058153 69.52852395 -16.33435059 66.04321289 C-16.30440129 62.47659785 -16.25792094 58.91020087 -16.21289062 55.34375 C-16.12717953 48.36470818 -16.05969235 41.3855935 -16.00390625 34.40625 C-17.16019531 33.98085937 -17.16019531 33.98085937 -18.33984375 33.546875 C-22.74542515 31.66061434 -25.21641757 28.60106041 -27.81640625 24.65625 C-29.88817973 18.9861331 -29.90694183 13.80447271 -27.50390625 8.21875 C-24.79227593 3.37655299 -20.29540375 -0.56358666 -14.95703125 -2.234375 C-9.29481377 -3.27622302 -4.99561442 -2.72665115 0 0 Z M-14.94140625 11.46875 C-16.61796915 14.52601176 -16.36919602 16.9968788 -16.00390625 20.40625 C-15.08723958 22.48958333 -15.08723958 22.48958333 -13.00390625 23.40625 C-9.59453505 23.77153977 -7.12366801 24.0203129 -4.06640625 22.34375 C-2.38984335 19.28648824 -2.63861648 16.8156212 -3.00390625 13.40625 C-3.92057292 11.32291667 -3.92057292 11.32291667 -6.00390625 10.40625 C-9.41327745 10.04096023 -11.88414449 9.7921871 -14.94140625 11.46875 Z " fill="#00EACC" transform="translate(133.00390625,192.59375)"/>
<path d="M0 0 C7.52552074 5.38864448 13.53165979 12.96123641 15.25 22.25 C16.07696627 34.53248259 15.31006494 43.64068281 7.25 53.5 C0.99069999 60.0914685 -7.46796359 64.80736329 -16.6328125 65.453125 C-29.97477733 65.64602088 -37.75693193 62.65560427 -47.50390625 53.625 C-53.764373 47.09779658 -55.95793311 39.138569 -56.25 30.25 C-55.91978012 20.18930088 -52.7295587 11.58336122 -45.75 4.25 C-32.88117704 -7.49747325 -14.80862131 -9.26157922 0 0 Z M-31.75 15.25 C-35.82080866 20.46898546 -37.00190335 25.65013215 -36.75 32.25 C-35.67619475 38.24620452 -33.62868899 42.41674437 -28.75 46.25 C-24.72917022 48.47203751 -21.29914366 48.71262478 -16.75 48.25 C-10.97274219 46.34588506 -7.57082288 43.77881285 -4.75 38.25 C-2.87660343 32.16146115 -3.24405405 26.0448264 -5.62890625 20.1796875 C-8.16215804 15.81931682 -12.01481916 12.82839361 -16.75 11.25 C-22.6737852 10.66923675 -26.98707571 11.76064025 -31.75 15.25 Z " fill="#EFF0F0" transform="translate(585.75,215.75)"/>
<path d="M0 0 C7.1635964 5.12948878 12.66941342 11.93812113 14.83984375 20.60546875 C16.53274357 31.52064187 15.67232929 41.94543933 9.0625 51 C2.21299232 59.10787235 -6.0607908 64.36469648 -16.76953125 65.59765625 C-27.56175121 65.91629689 -36.37621434 63.09689576 -44.75 56.25 C-51.01889133 50.30223228 -55.31356018 42.86647963 -55.98828125 34.18359375 C-56.23614175 22.50805964 -53.96256854 12.87887386 -45.75 4.25 C-32.88117704 -7.49747325 -14.80862131 -9.26157922 0 0 Z M-32.5 17.0625 C-36.53841707 22.78359085 -37.11695152 27.04750954 -36.21875 33.85546875 C-34.95401735 40.31614468 -31.86818081 43.51799316 -26.75 47.25 C-21.70195496 48.93268168 -17.42916054 48.81212419 -12.5625 46.6875 C-7.65347002 44.01417166 -5.93908704 40.42089877 -4 35.25 C-3.22489037 29.04912292 -3.58637596 23.69540165 -6.75 18.25 C-10.69493342 13.94134932 -14.10388952 11.44970645 -20.0625 11 C-25.6816531 11.38095953 -28.58310243 13.05658203 -32.5 17.0625 Z " fill="#EFF0F0" transform="translate(662.75,215.75)"/>
<path d="M0 0 C5.83408002 4.66509924 9.13128904 9.76086552 10.15991211 17.21923828 C10.82648688 26.10738864 10.94674395 34.95726959 10.92333984 43.86523438 C10.91788561 46.34641371 10.92336789 48.82741923 10.9296875 51.30859375 C10.92902823 52.88671915 10.92775023 54.46484444 10.92578125 56.04296875 C10.92780548 56.78448181 10.92982971 57.52599487 10.93191528 58.28997803 C10.90798024 63.44358226 10.90798024 63.44358226 9.79296875 64.55859375 C8.37726752 64.64510986 6.95737375 64.66564279 5.5390625 64.65625 C4.68505859 64.65302734 3.83105469 64.64980469 2.95117188 64.64648438 C2.05333984 64.63810547 1.15550781 64.62972656 0.23046875 64.62109375 C-0.67123047 64.61658203 -1.57292969 64.61207031 -2.50195312 64.60742188 C-4.73704439 64.595596 -6.97200562 64.57911595 -9.20703125 64.55859375 C-9.22161377 63.35323975 -9.23619629 62.14788574 -9.2512207 60.90600586 C-9.3094145 56.41238491 -9.38664573 51.91925404 -9.46948242 47.42602539 C-9.50263284 45.4853514 -9.53069525 43.54458329 -9.5534668 41.60375977 C-9.58719509 38.80574628 -9.63951944 36.00858765 -9.6953125 33.2109375 C-9.70170242 32.35024155 -9.70809235 31.48954559 -9.7146759 30.60276794 C-9.84480753 25.20977018 -10.59950003 21.31798232 -13.20703125 16.55859375 C-17.65103391 13.59592531 -21.99604202 13.78913481 -27.20703125 14.55859375 C-30.10386993 16.76019115 -31.60000356 18.34453837 -33.20703125 21.55859375 C-33.32429784 22.94677048 -33.38384531 24.34008089 -33.41235352 25.73291016 C-33.43229874 26.59365143 -33.45224396 27.4543927 -33.47279358 28.34121704 C-33.49786232 29.73659195 -33.49786232 29.73659195 -33.5234375 31.16015625 C-33.5442186 32.11175629 -33.56499969 33.06335632 -33.58641052 34.04379272 C-33.65191258 37.09031807 -33.71079405 40.13693118 -33.76953125 43.18359375 C-33.81271584 45.24610291 -33.85633011 47.30860312 -33.90039062 49.37109375 C-34.00840504 54.43350502 -34.10747359 59.49598076 -34.20703125 64.55859375 C-40.80703125 64.55859375 -47.40703125 64.55859375 -54.20703125 64.55859375 C-54.20703125 42.44859375 -54.20703125 20.33859375 -54.20703125 -2.44140625 C-48.59703125 -2.44140625 -42.98703125 -2.44140625 -37.20703125 -2.44140625 C-36.54703125 -0.13140625 -35.88703125 2.17859375 -35.20703125 4.55859375 C-34.80613281 4.16027344 -34.40523438 3.76195312 -33.9921875 3.3515625 C-24.29528543 -5.68568637 -11.30627327 -7.38409705 0 0 Z " fill="#EEEEEF" transform="translate(438.20703125,214.44140625)"/>
<path d="M0 0 C16.89071003 6.26929307 28.46507813 4.7471991 44.80566406 -2.24389648 C57.01084403 -6.99018508 68.24761585 -3.32422929 79.87011719 1.15405273 C88.72432717 4.4432408 97.78256467 5.98519788 106.6875 1.9375 C110.5317982 0.21539357 112.67440435 -0.29394972 116.75 1 C119.04208503 3.13927936 119.69677153 4.30802985 119.9375 7.4375 C117.53183068 12.62868117 111.67906997 14.79802791 106.5625 16.8125 C92.83172766 20.91053497 80.18289511 15.90088501 67.48046875 10.83203125 C60.36552256 8.66395752 55.36421331 8.90618041 48.4375 11.1875 C47.69040771 11.41655029 46.94331543 11.64560059 46.17358398 11.8815918 C42.10736153 13.14912846 38.22639601 14.62819181 34.3125 16.3125 C21.21298435 21.05271512 8.99037239 18.15431796 -3.37426758 12.84667969 C-10.33355629 9.93568938 -17.54656443 8.18074244 -24.84545898 11.00390625 C-25.63895752 11.33261719 -26.43245605 11.66132813 -27.25 12 C-33.34507923 12.52543786 -33.34507923 12.52543786 -36.1875 10.875 C-37.75422245 8.11019567 -37.63976435 6.11811483 -37.25 3 C-35.05249758 0.19482809 -32.60071387 -0.92725944 -29.3125 -2.1875 C-28.45785156 -2.53167969 -27.60320313 -2.87585938 -26.72265625 -3.23046875 C-16.93177027 -5.40010265 -9.11454013 -3.71074025 0 0 Z " fill="#008DFE" transform="translate(81.25,330)"/>
<path d="M0 0 C53.79 0 107.58 0 163 0 C161.3357249 3.32855021 160.31939585 4.9361901 157.8125 7.453125 C157.19632813 8.071875 156.58015625 8.690625 155.9453125 9.328125 C155.30335938 9.96234375 154.66140625 10.5965625 154 11.25 C153.35804688 11.8996875 152.71609375 12.549375 152.0546875 13.21875 C151.43851563 13.83234375 150.82234375 14.4459375 150.1875 15.078125 C149.62417969 15.63918945 149.06085938 16.20025391 148.48046875 16.77832031 C147 18 147 18 145 18 C144.75507813 18.57105469 144.51015625 19.14210937 144.2578125 19.73046875 C142.78145478 22.39433159 141.04854253 24.18061072 138.875 26.3125 C138.15054688 27.03050781 137.42609375 27.74851563 136.6796875 28.48828125 C134.59631194 30.44106622 132.49015952 32.32381803 130.33251953 34.19165039 C123.79735756 39.90030194 117.52341031 45.8705914 111.29736328 51.91308594 C109.76366938 53.3897349 108.21763037 54.85366639 106.65966797 56.3046875 C97.21471474 64.27522928 97.21471474 64.27522928 92.00390625 74.95214844 C92.00044155 78.14746984 92.22688024 80.90684985 93 84 C93.86882812 83.11957031 94.73765625 82.23914063 95.6328125 81.33203125 C96.7967385 80.15871875 97.9608087 78.98554927 99.125 77.8125 C99.69476563 77.23435547 100.26453125 76.65621094 100.8515625 76.06054688 C103.57472717 73.32190968 106.3030756 70.69494031 109.3046875 68.26171875 C112.13503986 66.10165727 112.13503986 66.10165727 114 63 C114.66 63 115.32 63 116 63 C116.39070679 62.10269165 116.39070679 62.10269165 116.78930664 61.18725586 C118.0901271 58.8371751 119.29527915 57.68521471 121.37109375 56.00390625 C125.01222429 52.921559 128.4268463 49.66212527 131.78515625 46.27734375 C132.29428558 45.76491119 132.80341492 45.25247864 133.32797241 44.72451782 C134.90813362 43.13079538 136.48574751 41.53459456 138.0625 39.9375 C140.15451769 37.81858356 142.24881951 35.70200723 144.34765625 33.58984375 C145.09337387 32.83929214 145.09337387 32.83929214 145.85415649 32.07357788 C148.52033016 29.41098335 151.23400694 26.86237607 154.12109375 24.44140625 C157.10933955 22.13479596 157.10933955 22.13479596 159 19 C159.66 19 160.32 19 161 19 C161.66 17.68 162.32 16.36 163 15 C163.66 15 164.32 15 165 15 C165.2578125 14.40703125 165.515625 13.8140625 165.78125 13.203125 C167.09769895 10.82339035 168.42580782 9.49021208 170.5 7.75 C171.1084375 7.22921875 171.716875 6.7084375 172.34375 6.171875 C174 5 174 5 176 5 C177.12981112 7.25962223 177.13476478 8.5017888 177.15390015 11.00997925 C177.16250061 11.84836334 177.17110107 12.68674744 177.17996216 13.55053711 C177.18635208 14.93293579 177.18635208 14.93293579 177.19287109 16.34326172 C177.20513733 17.79709763 177.20513733 17.79709763 177.21765137 19.28030396 C177.24252234 22.49675879 177.25902409 25.7131695 177.2734375 28.9296875 C177.27876118 30.02611698 177.28408485 31.12254646 177.28956985 32.25220108 C177.31630643 38.05338086 177.33568137 43.85453905 177.35009766 49.65576172 C177.36676382 55.65741127 177.41155704 61.65851366 177.4624691 67.65995598 C177.49606648 72.26669979 177.50766677 76.87331241 177.51332474 81.48016739 C177.52005597 83.6930269 177.53532623 85.90587722 177.55921555 88.11861801 C177.59071378 91.21218726 177.59092691 94.30426279 177.58349609 97.39794922 C177.59990143 98.31549988 177.61630676 99.23305054 177.63320923 100.17840576 C177.57200967 106.38793843 177.57200967 106.38793843 174.59654236 109.57174683 C172.00782681 110.99569479 170.69976092 111.47938201 167.79296875 111.390625 C167.04208984 111.37773437 166.29121094 111.36484375 165.51757812 111.3515625 C164.74865234 111.31804687 163.97972656 111.28453125 163.1875 111.25 C162.39923828 111.23195313 161.61097656 111.21390625 160.79882812 111.1953125 C158.86535739 111.14844048 156.93251715 111.0767041 155 111 C155 110.34 155 109.68 155 109 C161.27 108.67 167.54 108.34 174 108 C174 75 174 42 174 8 C164.1 17.9 154.2 27.8 144 38 C141.36 40.31 138.72 42.62 136 45 C134.4811271 46.44840518 132.97760256 47.91331843 131.49926758 49.40307617 C130.71518021 50.19046677 129.93109283 50.97785736 129.12324524 51.78910828 C128.30526962 52.61538223 127.48729401 53.44165619 126.64453125 54.29296875 C125.7798674 55.16141922 124.91520355 56.02986969 124.02433777 56.92463684 C121.28460591 59.67649832 118.54815333 62.43158435 115.8125 65.1875 C112.19690689 68.82971798 108.577997 72.4685929 104.95703125 76.10546875 C103.72095879 77.35398872 103.72095879 77.35398872 102.45991516 78.62773132 C98.78995749 82.31333863 95.18342071 85.88625475 91 89 C90.34 88.67 89.68 88.34 89 88 C87.99126377 80.65815461 87.49775043 73.61688801 91.87988281 67.28271484 C96.99772951 61.37578692 102.72415725 55.6812192 109 51 C109.66 51 110.32 51 111 51 C111 50.34 111 49.68 111 49 C112.44815063 47.57432556 112.44815063 47.57432556 114.46337891 45.90991211 C119.08308078 41.9791265 123.33196211 37.76112895 127.5859375 33.44140625 C129.19127761 31.82344006 130.79675008 30.2056052 132.40234375 28.58789062 C134.90602832 26.05923349 137.40807228 23.52899097 139.90771484 20.99633789 C142.33781785 18.53621902 144.77394997 16.08220267 147.2109375 13.62890625 C147.96297455 12.86340958 148.7150116 12.0979129 149.48983765 11.30921936 C150.53199936 10.26198952 150.53199936 10.26198952 151.59521484 9.19360352 C152.20618011 8.57518082 152.81714539 7.95675812 153.44662476 7.31959534 C155 6 155 6 157 6 C157 5.34 157 4.68 157 4 C157.66 3.67 158.32 3.34 159 3 C80.79 2.505 80.79 2.505 1 2 C0.67 1.34 0.34 0.68 0 0 Z " fill="#0380EE" transform="translate(43,169)"/>
<path d="M0 0 C1.31244186 -0.00412399 2.62488373 -0.00824799 3.97709656 -0.01249695 C5.41931361 -0.00188146 6.86152855 0.00902294 8.30374146 0.02018738 C9.83170047 0.02103415 11.35966071 0.02055752 12.88761902 0.01885986 C17.02566901 0.01800045 21.16345719 0.03561744 25.30144644 0.05658174 C29.62960063 0.0753575 33.95776107 0.07709969 38.28594971 0.08065796 C46.4775209 0.08997578 54.66897173 0.114586 62.86048996 0.14470643 C72.18812509 0.17825861 81.51576602 0.19473851 90.84344649 0.20979273 C110.02705702 0.24113579 129.21055557 0.29389118 148.39407349 0.36076355 C148.39407349 0.69076355 148.39407349 1.02076355 148.39407349 1.36076355 C122.29134184 2.00840234 96.2047494 2.45862909 70.09329224 2.3177948 C67.84248904 2.30735528 65.59168541 2.29700982 63.34088135 2.28675842 C54.24431413 2.24272886 45.14788597 2.19244906 36.05154419 2.11393738 C30.35176759 2.06552184 24.652174 2.03648925 18.95221901 2.0201931 C16.81636743 2.0103535 14.68053551 1.9932327 12.54480553 1.96840858 C9.60329057 1.93475611 6.66266087 1.92578691 3.72097778 1.92253113 C2.85954666 1.90657898 1.99811554 1.89062683 1.11058044 1.87419128 C-4.27201539 1.90142327 -7.35535262 2.74885881 -11.60592651 6.36076355 C-13.74644872 9.57154686 -13.85766784 10.4005291 -13.86662292 14.09169006 C-13.87370773 15.06463013 -13.88079254 16.03757019 -13.88809204 17.03999329 C-13.88437592 18.63906021 -13.88437592 18.63906021 -13.88058472 20.27043152 C-13.88569565 21.39425232 -13.89080658 22.51807312 -13.89607239 23.6759491 C-13.91000524 27.40167016 -13.9090087 31.12720699 -13.90670776 34.85295105 C-13.91059288 37.43743458 -13.91492717 40.02191748 -13.91969299 42.60639954 C-13.92716333 48.02861366 -13.92699605 53.45075606 -13.92160034 58.87297058 C-13.91556287 65.13676795 -13.92786492 71.40034056 -13.94917041 77.66409957 C-13.96892108 83.69278654 -13.9719588 89.72135593 -13.96843529 95.75008011 C-13.96894929 98.31375277 -13.97420172 100.87742897 -13.98424721 103.441082 C-13.99656548 107.02500017 -13.98984689 110.60839687 -13.97824097 114.19230652 C-13.9858847 115.25430267 -13.99352844 116.31629883 -14.00140381 117.41047668 C-14.01982373 124.40848142 -14.01982373 124.40848142 -10.60592651 130.36076355 C-7.11255834 132.68967567 -5.74584787 132.59627498 -1.62545776 132.55607605 C-0.46207886 132.54963074 0.70130005 132.54318542 1.89993286 132.5365448 C3.11487427 132.51978699 4.32981567 132.50302917 5.58157349 132.48576355 C6.80811646 132.47674011 8.03465942 132.46771667 9.29837036 132.4584198 C12.33046644 132.43482372 15.36217286 132.40190196 18.39407349 132.36076355 C18.39407349 130.38076355 18.39407349 128.40076355 18.39407349 126.36076355 C16.6577063 126.33949402 16.6577063 126.33949402 14.88626099 126.3177948 C13.34715977 126.27087098 11.8080985 126.22262373 10.26907349 126.17326355 C9.12825317 126.16456238 9.12825317 126.16456238 7.96438599 126.15568542 C7.21672974 126.12668152 6.46907349 126.09767761 5.69876099 126.0677948 C5.01797485 126.05208435 4.33718872 126.0363739 3.63577271 126.02018738 C0.12737365 124.98814797 -2.40813798 123.2370327 -4.60592651 120.36076355 C-5.47078258 117.01980555 -5.36546437 113.77247469 -5.28707886 110.33805847 C-5.28795502 109.33271057 -5.28883118 108.32736267 -5.28973389 107.29154968 C-5.2855592 103.97398231 -5.23891006 100.6584457 -5.19186401 97.3412323 C-5.18067152 95.03910425 -5.17213159 92.7369619 -5.1661377 90.43481445 C-5.14324397 84.37965848 -5.08431438 78.32536795 -5.01791382 72.27055359 C-4.956504 66.09045621 -4.92912535 59.9102188 -4.89889526 53.72990417 C-4.83457303 41.60647734 -4.73218565 29.48369245 -4.60592651 17.36076355 C-2.56160895 20.4272399 -2.35412784 21.05481584 -2.33418274 24.51118469 C-2.32446442 25.35527893 -2.31474609 26.19937317 -2.30473328 27.06904602 C-2.30384956 28.45312149 -2.30384956 28.45312149 -2.302948 29.86515808 C-2.29450867 30.83934692 -2.28606934 31.81353577 -2.27737427 32.81724548 C-2.25154798 36.04269383 -2.23944637 39.26805067 -2.22702026 42.49357605 C-2.21085332 44.72892489 -2.19367419 46.96426662 -2.17552185 49.19960022 C-2.12978396 55.08792343 -2.09500139 60.97625597 -2.06332397 66.8646698 C-2.01148886 76.29802487 -1.94649354 85.73127584 -1.87510872 95.16450119 C-1.85219115 98.46893639 -1.83597564 101.77335818 -1.82038879 105.07783508 C-1.80698838 107.0902776 -1.79337413 109.1027187 -1.7795105 111.11515808 C-1.77689713 112.04192352 -1.77428375 112.96868896 -1.77159119 113.92353821 C-2.14622912 117.96356991 -2.14622912 117.96356991 -0.60592651 121.36076355 C3.16105585 121.56479268 6.92152658 121.70749857 10.69290161 121.79045105 C14.22639321 121.9280079 16.76945253 122.03695698 19.94094849 123.68107605 C21.39407349 125.36076355 21.39407349 125.36076355 21.83157349 128.86076355 C21.39407349 132.36076355 21.39407349 132.36076355 20.39407349 134.23576355 C13.69990177 138.00123514 2.3230562 137.16802779 -4.98092651 135.61076355 C-9.77769262 133.95670627 -12.42734468 132.15331634 -15.21739197 127.90982056 C-17.14132498 122.99229945 -17.03278834 118.56199195 -17.00997925 113.32585144 C-17.0168425 112.22431229 -17.02370575 111.12277313 -17.03077698 109.987854 C-17.04905224 106.35291084 -17.04520628 102.71839897 -17.03952026 99.0834198 C-17.04408165 96.55285502 -17.0493871 94.02229148 -17.05540466 91.49172974 C-17.0643372 86.18996056 -17.06214523 80.88834806 -17.05197144 75.58659363 C-17.04049258 69.46981735 -17.0545657 63.35347965 -17.08136791 57.23676115 C-17.10624205 51.33782102 -17.10869517 45.43901657 -17.10225105 39.5400219 C-17.10209776 37.03661304 -17.10814826 34.53319576 -17.12054253 32.02981758 C-17.13543794 28.52790429 -17.12478475 25.02695359 -17.1076355 21.52507019 C-17.11730347 20.4936792 -17.12697144 19.46228821 -17.13693237 18.39964294 C-17.07348631 12.20502706 -16.47770936 8.29990643 -12.60592651 3.36076355 C-8.26777052 0.71955082 -5.04649734 -0.01226863 0 0 Z " fill="#0579E8" transform="translate(31.605926513671875,155.6392364501953)"/>
<path d="M0 0 C16.89071003 6.26929307 28.46507813 4.7471991 44.80566406 -2.24389648 C57.01084403 -6.99018508 68.24761585 -3.32422929 79.87011719 1.15405273 C88.72432717 4.4432408 97.78256467 5.98519788 106.6875 1.9375 C110.5317982 0.21539357 112.67440435 -0.29394972 116.75 1 C119.04208503 3.13927936 119.69677153 4.30802985 119.9375 7.4375 C117.53183068 12.62868117 111.67906997 14.79802791 106.5625 16.8125 C92.83172766 20.91053497 80.18289511 15.90088501 67.48046875 10.83203125 C60.36552256 8.66395752 55.36421331 8.90618041 48.4375 11.1875 C47.69040771 11.41655029 46.94331543 11.64560059 46.17358398 11.8815918 C42.10736153 13.14912846 38.22639601 14.62819181 34.3125 16.3125 C21.21298435 21.05271512 8.99037239 18.15431796 -3.37426758 12.84667969 C-10.33355629 9.93568938 -17.54656443 8.18074244 -24.84545898 11.00390625 C-25.63895752 11.33261719 -26.43245605 11.66132813 -27.25 12 C-33.34507923 12.52543786 -33.34507923 12.52543786 -36.1875 10.875 C-37.75422245 8.11019567 -37.63976435 6.11811483 -37.25 3 C-35.05249758 0.19482809 -32.60071387 -0.92725944 -29.3125 -2.1875 C-28.45785156 -2.53167969 -27.60320313 -2.87585938 -26.72265625 -3.23046875 C-16.93177027 -5.40010265 -9.11454013 -3.71074025 0 0 Z M-36.25 4 C-36.32272562 6.55460214 -36.32272562 6.55460214 -35.25 9 C-33.15476295 10.70619637 -33.15476295 10.70619637 -30.25 11 C-28.61387038 10.26541119 -26.97917581 9.52727863 -25.35546875 8.765625 C-14.71513997 4.89641453 -4.03445268 10.21351265 5.7421875 14.24389648 C15.78887196 18.02728435 28.96240918 17.11432389 38.75 13 C39.68972656 12.566875 40.62945312 12.13375 41.59765625 11.6875 C53.93616873 6.08342724 63.21800237 7.42795887 75.75 12 C77.21011755 12.55785222 78.66875323 13.11961999 80.125 13.6875 C83.81880151 15.02491089 86.83771537 15.67397628 90.75 16 C91.62398438 16.07605469 92.49796875 16.15210938 93.3984375 16.23046875 C101.66382717 16.63180657 108.34714533 14.64618215 115.75 11 C116.41 10.34 117.07 9.68 117.75 9 C117.42028521 5.70285207 117.1273161 4.3773161 114.75 2 C111.1588291 2.25651221 108.49391068 3.11231988 105.1875 4.5625 C93.02112375 9.11345653 82.03210919 4.45322243 70.74194336 -0.24389648 C59.49931957 -4.51138097 48.92990818 -2.50579869 38.25 2 C21.7966585 8.79073739 9.92999909 6.25839305 -6.21386719 -0.24389648 C-15.7710055 -3.79287219 -28.67100499 -3.57899501 -36.25 4 Z " fill="#067BE8" transform="translate(81.25,330)"/>
<path d="M0 0 C5.72911572 -0.09913284 11.45772839 -0.1715934 17.1875 -0.21972656 C19.13517966 -0.23979906 21.08279937 -0.26706332 23.03027344 -0.30175781 C25.83543721 -0.35046852 28.63980187 -0.37301241 31.4453125 -0.390625 C32.31116974 -0.41127014 33.17702698 -0.43191528 34.06912231 -0.45318604 C39.5291931 -0.45519679 42.74781075 0.2439663 47 4 C51.03074099 8.80865403 50.4226986 14.0729825 50.38818359 20.02905273 C50.39344055 21.14180573 50.39869751 22.25455872 50.40411377 23.40103149 C50.41731539 27.07869512 50.40857412 30.75592573 50.3984375 34.43359375 C50.40045832 36.99040307 50.40336983 39.54721182 50.40713501 42.10401917 C50.41155872 47.4630434 50.40541268 52.82191262 50.39111328 58.1809082 C50.37479576 64.36748797 50.38007018 70.55377097 50.3965925 76.74034351 C50.41187348 82.70175347 50.41022185 88.66307163 50.4014473 94.62449837 C50.3994465 97.15663762 50.40190032 99.68878444 50.40888596 102.22091484 C50.41650894 105.76133113 50.40488302 109.30117877 50.38818359 112.84155273 C50.39425629 113.88746078 50.40032898 114.93336884 50.40658569 116.01097107 C50.35930741 121.42455935 50.08728202 125.34465458 47 130 C41.806241 135.05338714 36.43820591 136.24891631 29.33959961 136.25878906 C28.03482162 136.26509338 26.73004364 136.27139771 25.38572693 136.27789307 C23.97459782 136.27431333 22.56346995 136.27021138 21.15234375 136.265625 C19.69316035 136.26697368 18.2339774 136.26891591 16.77479553 136.27142334 C13.72441304 136.2743641 10.67414808 136.2701102 7.6237793 136.26074219 C3.7210173 136.24933805 -0.18146987 136.25591972 -4.08422184 136.26788712 C-7.09457966 136.27512544 -10.10487266 136.27280891 -13.11523247 136.26763153 C-14.55409211 136.26630102 -15.9929577 136.26792173 -17.43181038 136.27259064 C-19.44420377 136.27768919 -21.4566179 136.26853585 -23.46899414 136.25878906 C-24.61227676 136.25719788 -25.75555939 136.25560669 -26.93348694 136.25396729 C-30.0712117 135.99410228 -32.2225276 135.467569 -35 134 C-37 131 -37 131 -36.875 128 C-36 125 -36 125 -34.4375 123.125 C-30.85660328 121.47227844 -27.92364165 121.80381792 -24 122 C-24 122.66 -24 123.32 -24 124 C-25.27875 124.12375 -26.5575 124.2475 -27.875 124.375 C-31.34790936 124.69042399 -31.34790936 124.69042399 -34 127 C-33.67958603 129.60280568 -33.67958603 129.60280568 -33 132 C-23.40344696 132.06945844 -13.80698023 132.12279 -4.21023083 132.15543652 C0.24575989 132.17110387 4.70157885 132.19236152 9.1574707 132.22631836 C13.4562976 132.25887388 17.75495912 132.27684495 22.05389977 132.28463173 C23.69539685 132.29018211 25.33688471 132.30102049 26.97831154 132.31719017 C29.2745596 132.33891431 31.57012108 132.3419691 33.86645508 132.34057617 C35.8283654 132.35056892 35.8283654 132.35056892 37.82991028 132.36076355 C41.22779578 131.97407631 41.94426723 131.57798578 44 129 C44.66 129 45.32 129 46 129 C46.87633673 125.97196843 47.13332669 123.2587977 47.15390015 120.1108551 C47.16250061 119.12812622 47.17110107 118.14539734 47.17996216 117.13288879 C47.18422211 116.06108871 47.18848206 114.98928864 47.19287109 113.88500977 C47.20104858 112.75128937 47.20922607 111.61756897 47.21765137 110.44949341 C47.24247098 106.69680306 47.2590094 102.94415035 47.2734375 99.19140625 C47.28142302 97.27005513 47.28142302 97.27005513 47.28956985 95.30988884 C47.31078722 89.92853812 47.3299188 84.54719964 47.34119225 79.16581821 C47.35744172 71.4611393 47.39066253 63.75696374 47.44759309 56.05247456 C47.49095895 49.97627458 47.50693638 43.90027219 47.51332474 37.82392693 C47.52005328 35.24068549 47.53531654 32.65745185 47.55921555 30.07431221 C47.59072266 26.46394344 47.59092524 22.85485408 47.58349609 19.24438477 C47.59990143 18.17460892 47.61630676 17.10483307 47.63320923 16.00263977 C47.60499114 9.97493722 47.60499114 9.97493722 44.58853149 4.85972595 C40.23380014 1.73107678 37.02980619 1.89715273 31.81640625 1.97265625 C30.1503927 1.98530224 28.48437696 1.99766322 26.81835938 2.00976562 C24.18702435 2.03460114 21.55580181 2.06258493 18.92456055 2.09594727 C16.38850171 2.12611864 13.85258713 2.14391511 11.31640625 2.16015625 C10.13504845 2.18034569 10.13504845 2.18034569 8.92982483 2.20094299 C5.07403731 2.2186899 3.28717901 2.19145267 0 0 Z " fill="#0579E8" transform="translate(181,156)"/>
<path d="M0 0 C1.31896465 0.92838287 2.62998689 1.86805732 3.9375 2.8125 C4.66839844 3.33457031 5.39929687 3.85664063 6.15234375 4.39453125 C8 6 8 6 9 9 C9.66 9 10.32 9 11 9 C11 9.66 11 10.32 11 11 C11.66 11 12.32 11 13 11 C14.71051471 12.62163343 16.37041859 14.2970555 18 16 C19.62007842 17.59868582 21.24119475 19.19632044 22.86328125 20.79296875 C24.67982007 22.59101191 26.49622257 24.3891928 28.3125 26.1875 C29.24384766 27.10208984 30.17519531 28.01667969 31.13476562 28.95898438 C32.01455078 29.83232422 32.89433594 30.70566406 33.80078125 31.60546875 C35.00988159 32.79885864 35.00988159 32.79885864 36.2434082 34.01635742 C38 36 38 36 38 38 C38.87205078 38.37898438 38.87205078 38.37898438 39.76171875 38.765625 C42.26071618 40.14378065 43.84834704 41.68583925 45.8125 43.75 C48.83188315 46.8535667 51.9168539 49.73319762 55.26171875 52.48046875 C57.07016568 54.06133585 58.76154927 55.73364262 60.44995117 57.44116211 C62.35356105 59.3555658 64.28067642 61.245207 66.20703125 63.13671875 C67.74229703 64.65353498 69.2774507 66.17046469 70.8125 67.6875 C71.60076172 68.45900391 72.38902344 69.23050781 73.20117188 70.02539062 C73.94560547 70.76337891 74.69003906 71.50136719 75.45703125 72.26171875 C76.13741455 72.93162842 76.81779785 73.60153809 77.51879883 74.29174805 C79 76 79 76 79 78 C79.66 78 80.32 78 81 78 C81.81778429 72.20281801 82.45318932 67.11242707 79.01953125 62.12109375 C76.45210579 59.57697321 73.81820295 57.26192487 71 55 C68.65215599 53.01526719 66.3200177 51.0174067 64 49 C64 48.34 64 47.68 64 47 C63.01 46.67 62.02 46.34 61 46 C59.84541384 44.91333068 58.69936092 43.81571407 57.60546875 42.66796875 C56.320817 41.33330622 55.00340587 40.03020504 53.67578125 38.73828125 C52.85464844 37.93777344 52.03351563 37.13726562 51.1875 36.3125 C50.39730469 35.54550781 49.60710937 34.77851563 48.79296875 33.98828125 C47 32 47 32 47 30 C46.34 30 45.68 30 45 30 C45.495 28.515 45.495 28.515 46 27 C51.45432597 32.0197906 56.83801298 37.10786424 62.18041992 42.24658203 C64.00151067 43.98268962 65.83763516 45.70317865 67.68920898 47.40673828 C84.73339721 63.12215111 84.73339721 63.12215111 85.65638733 72.81375122 C85.70608209 76.28207768 85.48031496 79.56324129 85 83 C83.0625 82.6875 83.0625 82.6875 81 82 C80.67 81.01 80.34 80.02 80 79 C78.68218688 78.30315655 77.34610846 77.6404797 76 77 C74.14796448 75.38847351 74.14796448 75.38847351 72.22875977 73.45581055 C71.14226891 72.36909309 71.14226891 72.36909309 70.03382874 71.26042175 C69.26082932 70.47709976 68.4878299 69.69377777 67.69140625 68.88671875 C66.88767075 68.08015335 66.08393524 67.27358795 65.25584412 66.44258118 C62.6866633 63.86221124 60.12450984 61.27498812 57.5625 58.6875 C55.84095597 56.95592158 54.11895588 55.22479645 52.39648438 53.49414062 C49.22836064 50.30968923 46.06287148 47.12267028 42.90063477 43.93237305 C41.60048031 42.62152537 40.300275 41.31072811 39 40 C38.48157028 39.47674637 37.96314056 38.95349274 37.42900085 38.41438293 C35.26775808 36.24052843 33.10820668 34.19527186 30.6875 32.3125 C29.800625 31.549375 28.91375 30.78625 28 30 C28 29.34 28 28.68 28 28 C27.45633789 27.78085938 26.91267578 27.56171875 26.35253906 27.3359375 C23.22332793 25.55895085 20.87314601 23.15895025 18.359375 20.625 C17.56880707 19.83730225 17.56880707 19.83730225 16.76226807 19.03369141 C15.65383072 17.92661117 14.54789954 16.8170167 13.44433594 15.70507812 C11.74893699 13.99893025 10.0430839 12.30375953 8.3359375 10.609375 C7.25977442 9.53189108 6.18423149 8.45378733 5.109375 7.375 C4.59695251 6.86662598 4.08453003 6.35825195 3.55657959 5.83447266 C0 2.22994091 0 2.22994091 0 0 Z " fill="#0381EF" transform="translate(29,174)"/>
<path d="M0 0 C53.79 0 107.58 0 163 0 C161 4 161 4 159 5 C159 4.34 159 3.68 159 3 C80.79 2.505 80.79 2.505 1 2 C0.67 1.34 0.34 0.68 0 0 Z " fill="#0270E5" transform="translate(43,169)"/>
<path d="M0 0 C12.54 0 25.08 0 38 0 C38 0.66 38 1.32 38 2 C25.44370963 4.05000659 12.61583284 3.00210871 0 2 C0 1.34 0 0.68 0 0 Z " fill="#0378E7" transform="translate(159,278)"/>
<path d="M0 0 C3.93214301 1.58939426 6.33020346 4.16342502 9.25 7.1875 C13.07080065 11.10006104 16.98054425 14.81346028 21.140625 18.36328125 C24.24136992 21.09271848 27.12097909 24.04000663 30 27 C29.67 27.66 29.34 28.32 29 29 C21.97511145 22.98640646 15.41804989 16.52845166 8.875 10 C8.0089917 9.13850342 7.1429834 8.27700684 6.25073242 7.3894043 C5.4435376 6.58027588 4.63634277 5.77114746 3.8046875 4.9375 C3.07233887 4.20402344 2.33999023 3.47054687 1.58544922 2.71484375 C0 1 0 1 0 0 Z " fill="#027AED" transform="translate(43,172)"/>
<path d="M0 0 C0.66 0.33 1.32 0.66 2 1 C0.92807816 2.3218362 -0.15802695 3.63217927 -1.25 4.9375 C-1.85328125 5.66839844 -2.4565625 6.39929688 -3.078125 7.15234375 C-5.10741134 9.10326334 -6.254407 9.61731779 -9 10 C-7.61811547 6.78956118 -6.07578097 4.95063635 -3.375 2.75 C-2.74335937 2.22921875 -2.11171875 1.7084375 -1.4609375 1.171875 C-0.73777344 0.59179688 -0.73777344 0.59179688 0 0 Z " fill="#01C7B7" transform="translate(764,214)"/>
<path d="" fill="#404044" transform="translate(0,0)"/>
<path d="" fill="#444647" transform="translate(0,0)"/>
<path d="" fill="#4E4E4E" transform="translate(0,0)"/>
<path d="" fill="#108FEF" transform="translate(0,0)"/>
<path d="" fill="#13A9FD" transform="translate(0,0)"/>
<path d="" fill="#3A3F40" transform="translate(0,0)"/>
<path d="" fill="#08A4F9" transform="translate(0,0)"/>
<path d="" fill="#0897FD" transform="translate(0,0)"/>
<path d="" fill="#404144" transform="translate(0,0)"/>
<path d="" fill="#404043" transform="translate(0,0)"/>
<path d="" fill="#424444" transform="translate(0,0)"/>
<path d="" fill="#0E81E2" transform="translate(0,0)"/>
<path d="" fill="#434545" transform="translate(0,0)"/>
<path d="" fill="#4A4B4D" transform="translate(0,0)"/>
<path d="" fill="#505052" transform="translate(0,0)"/>
<path d="" fill="#525254" transform="translate(0,0)"/>
<path d="" fill="#545656" transform="translate(0,0)"/>
<path d="" fill="#575859" transform="translate(0,0)"/>
<path d="" fill="#5C5D5E" transform="translate(0,0)"/>
</svg>
