<?xml version="1.0" encoding="UTF-8"?>
<svg version="1.1" xmlns="http://www.w3.org/2000/svg" width="500" height="500">
<path d="M0 0 C8.79391214 6.28711097 14.0107268 13.64355795 16.5625 24.140625 C18.00582127 33.57376044 15.84862411 44.36471594 10.3125 52.1875 C6.15368681 57.30045487 1.17478663 62.44577099 -5 65 C-5.99 65 -6.98 65 -8 65 C-8.00146656 65.64254069 -8.00293312 66.28508139 -8.00444412 66.94709301 C-8.04160955 82.63243285 -8.10075218 98.31751618 -8.18390274 114.00267315 C-8.22359332 121.58812977 -8.25603619 129.17348415 -8.27099609 136.7590332 C-8.28406471 143.37602796 -8.31116082 149.9927968 -8.35461307 156.60966426 C-8.37711187 160.10838475 -8.39291773 163.60682782 -8.39188385 167.10562706 C-8.39098969 171.02597024 -8.42143524 174.94575333 -8.45410156 178.8659668 C-8.44655602 180.57717461 -8.44655602 180.57717461 -8.43885803 182.32295227 C-8.63840503 197.9058178 -14.39544742 211.78745182 -25.375 222.875 C-38.14106529 234.9472574 -52.81459366 240.87348579 -70.50390625 241.03125 C-88.84037374 240.21174307 -104.35217072 233.32852842 -117 220 C-129.20056176 205.72629591 -131.32582873 188.9904148 -131.1953125 170.9296875 C-131.19157458 169.39698472 -131.1887313 167.86427953 -131.18673706 166.33157349 C-131.17916183 162.33017179 -131.15956714 158.32891916 -131.1373291 154.32757568 C-131.11673775 150.23142512 -131.10770714 146.13525008 -131.09765625 142.0390625 C-131.07631441 134.02597385 -131.04225389 126.01300556 -131 118 C-126.64045015 119.91778507 -124.71880197 122.8709496 -122.16796875 126.7578125 C-121.46235054 127.80885666 -121.46235054 127.80885666 -120.74247742 128.88113403 C-119.70858859 130.42295945 -118.67871151 131.96748048 -117.65228271 133.51428223 C-115.94032248 136.08977972 -114.21348518 138.65475121 -112.48291016 141.21777344 C-109.37908159 145.8177457 -106.28995199 150.42733461 -103.20727539 155.04150391 C-101.92642367 156.95692268 -100.64348955 158.87095032 -99.35864258 160.78369141 C-97.48074691 163.57941242 -95.60882177 166.37904177 -93.73828125 169.1796875 C-93.16032303 170.03787079 -92.58236481 170.89605408 -91.9868927 171.78024292 C-91.19927803 172.9638591 -91.19927803 172.9638591 -90.39575195 174.17138672 C-89.93151321 174.86481171 -89.46727448 175.55823669 -88.9889679 176.27267456 C-88 178 -88 178 -88 180 C-94.6 180 -101.2 180 -108 180 C-105.11586792 192.20209727 -102.36922893 202.89073601 -91.609375 210.52734375 C-81.44170938 216.26568198 -70.01732086 217.80565088 -58.75 214.8125 C-54.62644479 213.42911374 -51.15772708 211.4640768 -47.59375 208.98828125 C-46 208 -46 208 -44 208 C-44 207.34 -44 206.68 -44 206 C-43.34 206 -42.68 206 -42 206 C-41.73316406 205.45988281 -41.46632813 204.91976562 -41.19140625 204.36328125 C-40.32364319 202.64198075 -39.43236085 200.93247703 -38.52734375 199.23046875 C-38.00269531 198.22628906 -37.47804688 197.22210938 -36.9375 196.1875 C-36.41027344 195.19105469 -35.88304687 194.19460938 -35.33984375 193.16796875 C-32.39492386 186.20490743 -32.86167422 178.81090674 -32.88647461 171.37329102 C-32.88632858 170.2213475 -32.88618256 169.06940399 -32.8860321 167.8825531 C-32.88672662 164.08965141 -32.89449744 160.29679933 -32.90234375 156.50390625 C-32.90420957 153.86832201 -32.9056327 151.23273742 -32.90663147 148.59715271 C-32.90973253 142.37833348 -32.91792933 136.15953195 -32.92798096 129.9407205 C-32.93918024 122.85726131 -32.94466214 115.77380124 -32.94967639 108.69033539 C-32.96011302 94.12688116 -32.97768863 79.56344083 -33 65 C-33.94166016 64.69835937 -34.88332031 64.39671875 -35.85351562 64.0859375 C-43.68371515 61.38352227 -48.8881723 55.75359198 -52.78125 48.60546875 C-57.46899511 38.5839111 -58.60903895 29.02569857 -55.03125 18.44140625 C-50.95594688 8.79343484 -43.64221884 0.65292023 -33.9375 -3.5 C-22.46933879 -7.08179265 -10.34973482 -6.21284954 0 0 Z M-33.375 23.8125 C-35.94574647 28.85511808 -35.47726937 32.34359454 -33.9375 37.6875 C-30.86351318 42.94302585 -27.24844801 44.39773714 -21.5 45.9375 C-16.3121933 46.03013941 -12.83074236 44.33594713 -8.6875 41.3125 C-6.32039013 38.06868277 -5.22324117 34.969507 -5 31 C-5.75578654 26.20547913 -7.07142468 22.90592714 -10.5625 19.5 C-19.00805866 14.30273313 -27.09976387 16.38129932 -33.375 23.8125 Z " fill="#00E8CC" transform="translate(270,141)"/>
<path d="M0 0 C2.93200474 2.85276137 5.64315404 5.65079784 8 9 C4.11980141 7.74155722 2.0588158 6.57583797 0 3 C0 2.01 0 1.02 0 0 Z " fill="#01D9D1" transform="translate(219,190)"/>
<path d="" fill="#00EBCC" transform="translate(0,0)"/>
<path d="" fill="#05B5F0" transform="translate(0,0)"/>
</svg>
