<?xml version="1.0" encoding="UTF-8"?>
<svg version="1.1" xmlns="http://www.w3.org/2000/svg" width="500" height="500">
<path d="M0 0 C0.99 0.33 1.98 0.66 3 1 C5.02034678 1.04434232 7.04204845 1.03927974 9.0625 1 C14.77829638 0.88914819 14.77829638 0.88914819 17 2 C18.51050082 2.05650315 20.02369104 2.0477408 21.53466797 2.00585938 C22.47680145 1.9825354 23.41893494 1.95921143 24.38961792 1.93518066 C25.41346588 1.90500854 26.43731384 1.87483643 27.4921875 1.84375 C29.66406159 1.79032748 31.83593662 1.73694333 34.0078125 1.68359375 C37.42844037 1.59321726 40.84900043 1.50071431 44.26953125 1.40673828 C47.57280182 1.31781147 50.87620303 1.23677788 54.1796875 1.15625 C55.18329315 1.12607788 56.1868988 1.09590576 57.22091675 1.06481934 C63.308321 0.91899515 69.23743699 1.19613612 75.29937744 1.76300049 C78.57856748 2.05077356 81.82996265 2.12937015 85.12109375 2.1328125 C86.92416992 2.13474609 86.92416992 2.13474609 88.76367188 2.13671875 C90.5822168 2.13091797 90.5822168 2.13091797 92.4375 2.125 C93.67693359 2.12886719 94.91636719 2.13273437 96.19335938 2.13671875 C97.38638672 2.13542969 98.57941406 2.13414063 99.80859375 2.1328125 C101.41432251 2.13112061 101.41432251 2.13112061 103.05249023 2.12939453 C105.81895854 2.00794765 108.29674222 1.56249211 111 1 C115 1 115 1 118.67236328 1.49169922 C123.20629717 2.08511866 127.67469994 2.14429046 132.2421875 2.1328125 C133.09177032 2.13376923 133.94135315 2.13472595 134.81668091 2.13571167 C136.59653803 2.13638754 138.37639771 2.13457496 140.15625 2.13037109 C142.88807623 2.12497417 145.61974104 2.13035657 148.3515625 2.13671875 C150.08593786 2.13605865 151.82031313 2.13477889 153.5546875 2.1328125 C154.37234589 2.13483673 155.19000427 2.13686096 156.03244019 2.13894653 C160.1483125 2.2258415 160.1483125 2.2258415 164 1 C166.68907238 1.27346499 169.32970507 1.6020925 172 2 C173.33331716 2.18761498 174.66664912 2.37512483 176 2.5625 C176.99 2.706875 177.98 2.85125 179 3 C179.33 2.34 179.66 1.68 180 1 C182.31 1.66 184.62 2.32 187 3 C187.33 2.34 187.66 1.68 188 1 C189.794375 1.2475 189.794375 1.2475 191.625 1.5 C195.10870755 1.93777564 198.4849936 2.08174433 202 2 C202.99 2 203.98 2 205 2 C205.33 1.67 205.66 1.34 206 1 C206.33 1.66 206.66 2.32 207 3 C208.1446875 2.4740625 208.1446875 2.4740625 209.3125 1.9375 C212 1 212 1 215 2 C216.85227252 2.09357692 218.7078718 2.12993909 220.5625 2.125 C222.01849609 2.12886719 222.01849609 2.12886719 223.50390625 2.1328125 C225.99952953 2.16650953 225.99952953 2.16650953 228 1 C228.94875 1.165 229.8975 1.33 230.875 1.5 C236.2494873 2.40145328 241.62126727 1.57408477 247 1 C247 1.66 247 2.32 247 3 C248.00015137 2.83773926 249.00030273 2.67547852 250.03076172 2.50830078 C253.86824863 1.96239272 257.62896898 1.87062663 261.5078125 1.8671875 C262.19632294 1.86623077 262.88483337 1.86527405 263.59420776 1.86428833 C265.03790377 1.86361268 266.48160293 1.86542367 267.92529297 1.86962891 C270.1260461 1.87500255 272.32659672 1.86965454 274.52734375 1.86328125 C275.93750045 1.86394182 277.34765702 1.86522254 278.7578125 1.8671875 C280.0277002 1.86831543 281.29758789 1.86944336 282.60595703 1.87060547 C285.54244033 1.98255599 288.15099128 2.31577587 291 3 C291.33 2.34 291.66 1.68 292 1 C292.99386719 1.16242188 293.98773438 1.32484375 295.01171875 1.4921875 C298.9546801 2.05419106 302.82783065 2.1329455 306.8125 2.125 C308.11832031 2.12757812 309.42414063 2.13015625 310.76953125 2.1328125 C313.89038678 2.22567955 313.89038678 2.22567955 316 1 C324.20588235 0.73529412 324.20588235 0.73529412 328 2 C328 1.34 328 0.68 328 0 C329.010625 0.33 330.02125 0.66 331.0625 1 C334.76914292 2.07080796 338.13965616 2.07148785 342 2 C343.67557379 2.28520405 345.34817245 2.59955696 347 3 C347.33 2.34 347.66 1.68 348 1 C348.53109375 1.15855469 349.0621875 1.31710938 349.609375 1.48046875 C352.50599584 2.10996315 355.28882693 2.18970254 358.25 2.3125 C368.18039571 3.07808358 372.8428483 6.24629039 379.3359375 13.68359375 C383.20351236 19.06733058 383.30301823 23.89222721 383.31884766 30.30175781 C383.32888762 31.23622396 383.33892757 32.1706901 383.34927177 33.1334734 C383.38022782 36.24001782 383.39720441 39.34647457 383.4140625 42.453125 C383.43291498 44.64465527 383.45258394 46.83617865 383.47302246 49.0276947 C383.52504574 54.8888799 383.56464717 60.75008622 383.60129547 66.61138535 C383.63292306 71.466179 383.67110306 76.32091218 383.70925713 81.17565823 C383.81868865 95.14217008 383.90731418 109.10874973 383.98388672 123.0754776 C383.99856746 125.73999819 384.01381312 128.40451474 384.02929688 131.06903076 C384.12187362 147.20848593 384.13634947 163.34571771 384.02282715 179.48510742 C384.00213862 182.67069752 383.9861059 185.85628177 383.97165108 189.0419054 C383.93863686 196.23064569 383.88856734 203.41897848 383.81288338 210.60740376 C383.7763394 214.07978557 383.74508105 217.55196038 383.72955322 221.02450562 C383.70834605 224.83841931 383.6620306 228.65125146 383.609375 232.46484375 C383.60813629 233.58808044 383.60689758 234.71131714 383.60562134 235.86859131 C383.4544356 243.99275842 381.94579239 250.90312066 377.140625 257.5859375 C367.88565702 266.34373778 359.77539534 268.0754069 347.32470703 268.56347656 C345.73636645 268.62696981 345.73636645 268.62696981 344.11593819 268.69174576 C332.01078683 269.13176745 319.9154461 269.08160268 307.8046875 268.984375 C305.38713645 268.96762242 302.96958475 268.95096169 300.55203247 268.93438721 C295.54196712 268.89832664 290.53197263 268.85716429 285.52197266 268.81298828 C279.10667168 268.75741831 272.6914099 268.72120435 266.27595329 268.68935776 C261.30878888 268.66153768 256.34179778 268.62050162 251.37475967 268.57575226 C249.00732943 268.55660282 246.63985487 268.54228348 244.27236557 268.53295135 C240.98060141 268.51863672 237.68951951 268.48575483 234.39794922 268.44824219 C232.94399246 268.44803825 232.94399246 268.44803825 231.46066284 268.4478302 C226.2327588 268.36652482 222.50432552 267.95183528 218 265 C215.66797199 262.42878963 214.12418887 260.54478842 213.83984375 257.0078125 C214.10204888 253.61833157 214.91237631 251.17524739 216.4375 248.125 C222.58931687 243.02349332 232.06841238 243.71760936 239.70361328 243.78881836 C241.23270073 243.79078972 241.23270073 243.79078972 242.79267883 243.7928009 C246.13532088 243.79924778 249.47772771 243.81966952 252.8203125 243.83984375 C255.16665397 243.84612521 257.51299844 243.85136161 259.85934448 243.85560608 C266.02466749 243.86887006 272.18989028 243.89326947 278.35516357 243.92095947 C288.19937062 243.9641519 298.04360164 243.99400865 307.8878746 244.0170002 C311.30192758 244.02710436 314.71589315 244.04417079 318.12991333 244.06199646 C337.82407137 245.61574648 337.82407137 245.61574648 356 241 C358.65151521 237.18870022 358.44811622 232.82650345 358.61691284 228.35221863 C358.6545285 227.50797937 358.69214416 226.6637401 358.73089969 225.79391783 C359.08149015 217.31740584 359.14132463 208.84695386 359.12939453 200.36450195 C359.13075487 198.69982363 359.1325383 197.03514561 359.13470459 195.37046814 C359.13919995 190.91664501 359.13752353 186.46284546 359.1343255 182.009022 C359.13176517 177.32031972 359.13414912 172.63161924 359.13571167 167.94291687 C359.13752078 160.0866968 359.13515823 152.2304862 359.13037109 144.37426758 C359.12490999 135.30758039 359.12670955 126.24091563 359.1321975 117.17422897 C359.13673975 109.35467535 359.13737435 101.53512847 359.13475883 93.71557397 C359.13320486 89.05984802 359.13297852 84.40413262 359.13629532 79.74840736 C359.13919094 75.38077176 359.13716731 71.0131651 359.13140106 66.64553261 C359.13008343 65.04760791 359.13045058 63.44968076 359.13266373 61.85175705 C359.13541405 59.66381896 359.13194727 57.47597248 359.12698364 55.28804016 C359.12660662 54.0664536 359.12622959 52.84486704 359.12584114 51.5862627 C358.98805965 47.65971986 358.54001954 43.88994068 358 40 C356.92516357 41.09054688 356.92516357 41.09054688 355.82861328 42.203125 C353.17611342 44.89174588 350.51706465 47.573807 347.85595703 50.25390625 C346.70375906 51.41617986 345.55336008 52.58023967 344.40478516 53.74609375 C342.75629586 55.41876279 341.10150495 57.08496235 339.4453125 58.75 C338.6733403 59.53745605 338.6733403 59.53745605 337.88577271 60.34082031 C336.62791148 61.59907712 335.31812737 62.80502498 334 64 C333.34 64 332.68 64 332 64 C331.79761719 64.54011719 331.59523438 65.08023438 331.38671875 65.63671875 C329.43223412 68.96760101 326.66247826 71.26468357 323.8125 73.8125 C318.73541812 78.43222757 313.79369597 83.16180255 308.9609375 88.03515625 C308.4432933 88.55682877 307.92564911 89.07850128 307.39231873 89.61598206 C305.29903489 91.72878085 303.20813114 93.84376389 301.12637329 95.96792603 C299.65466519 97.46960733 298.17731102 98.9655441 296.69921875 100.4609375 C295.84158936 101.33540527 294.98395996 102.20987305 294.1003418 103.11083984 C292 105 292 105 290 105 C289.62875 105.86625 289.62875 105.86625 289.25 106.75 C287.81700012 109.32939979 286.21575324 111.06121592 284 113 C283.34 113 282.68 113 282 113 C281.34 114.32 280.68 115.64 280 117 C279.34 117 278.68 117 278 117 C277.67 117.99 277.34 118.98 277 120 C275.64453125 121.33203125 275.64453125 121.33203125 273.8125 122.8125 C269.80165135 126.21564431 266.07876957 129.83365309 262.375 133.5625 C261.77969482 134.1611084 261.18438965 134.7597168 260.57104492 135.37646484 C258.71206224 137.24903839 256.85560426 139.1240789 255 141 C252.54469227 143.48219066 250.08589153 145.96084642 247.625 148.4375 C246.80588135 149.26906616 246.80588135 149.26906616 245.97021484 150.11743164 C243.09302041 153.01241868 240.15048724 155.77233257 237.0612793 158.44091797 C232.99291475 161.96099934 229.18214772 165.68979259 225.39453125 169.5078125 C224.70743576 170.19632294 224.02034027 170.88483337 223.31242371 171.59420776 C221.14339384 173.76877327 218.97788322 175.94680386 216.8125 178.125 C215.34984371 179.59268149 213.88695496 181.06013134 212.42382812 182.52734375 C209.740504 185.21878649 207.05851136 187.91154009 204.37817383 190.60595703 C203.79750153 191.18702209 203.21682922 191.76808716 202.61856079 192.36676025 C201.16167821 193.8368555 199.7290118 195.33085484 198.29956055 196.82763672 C196.23519243 198.77781694 194.60726659 199.93778028 192 201 C191.82573793 196.44697246 191.69937962 191.89592242 191.61547852 187.34033203 C191.58047594 185.7940893 191.53285449 184.24807491 191.47192383 182.70263672 C190.91538845 168.21400994 190.91538845 168.21400994 194.6640625 163.8125 C196.08879389 162.51863523 197.53807223 161.25168398 199 160 C200.60962472 158.39474464 202.1860085 156.75993418 203.76469421 155.12426758 C206.13511539 152.67694504 208.54456612 150.26981122 210.95385742 147.86083984 C212.83085469 145.98162361 214.69966889 144.09450377 216.56835938 142.20703125 C217.7599284 141.01253356 218.95196829 139.81850536 220.14453125 138.625 C220.70284134 138.05950439 221.26115143 137.49400879 221.83638 136.91137695 C225.77113553 133 225.77113553 133 228 133 C228.226875 132.4225 228.45375 131.845 228.6875 131.25 C230.34761639 128.40408619 232.39187957 127.00158079 235 125 C236.68133597 123.3481329 238.34615141 121.67938691 240 120 C240.83291061 119.16264816 241.66582123 118.32529633 242.52397156 117.46257019 C243.85728264 116.12021049 243.85728264 116.12021049 245.2175293 114.75073242 C250.22599246 109.70976067 255.23940459 104.6737426 260.25575542 99.64062023 C263.2845576 96.60132658 266.31143771 93.56016594 269.33422852 90.51489258 C272.26635669 87.56110517 275.20328113 84.61216742 278.14365578 81.66658974 C279.26299951 80.54354407 280.38057834 79.41873653 281.49637413 78.29216576 C283.04988537 76.72422754 284.60945015 75.16256796 286.1706543 73.60229492 C287.05714157 72.71136642 287.94362885 71.82043793 288.85697937 70.9025116 C291 69 291 69 293 69 C293.33 68.01 293.66 67.02 294 66 C294.66 66 295.32 66 296 66 C296 65.34 296 64.68 296 64 C297.35668945 62.66455078 297.35668945 62.66455078 299.30078125 61.0703125 C304.89808948 56.30995038 310.01942019 51.08890685 315.1875 45.875 C316.16838194 44.88908623 317.14950049 43.90340779 318.13085938 42.91796875 C319.93530568 41.10544559 321.73810452 39.29134218 323.53979492 37.47607422 C326.02116053 34.97870298 328.51061871 32.48938129 331 30 C226.06 30 121.12 30 13 30 C18.47651482 36.08501646 23.38738065 41.37473212 29.42605591 46.68826294 C34.03444947 50.82720062 38.35577511 55.25409696 42.71484375 59.65234375 C43.70197733 60.64389748 44.6894154 61.63514817 45.67713928 62.62611389 C48.76680386 65.72705302 51.85243458 68.83198615 54.9375 71.9375 C58.54133599 75.56501611 62.14684908 79.19083426 65.75656319 82.81250191 C67.19166275 84.25405845 68.62371043 85.69859961 70.0556488 87.14329529 C70.92407913 88.01502884 71.79250946 88.88676239 72.68725586 89.78491211 C73.83115028 90.93666176 73.83115028 90.93666176 74.99815369 92.11167908 C77.05550776 94.15792605 77.05550776 94.15792605 80 96 C80 96.66 80 97.32 80 98 C80.639375 98.268125 81.27875 98.53625 81.9375 98.8125 C84 100 84 100 85 103 C86.485 103.495 86.485 103.495 88 104 C88 104.66 88 105.32 88 106 C88.81172417 106.33553139 88.81172417 106.33553139 89.6398468 106.67784119 C92.74807404 108.41907139 95.18639865 110.72782058 97.76245117 113.15454102 C98.32713608 113.68038284 98.89182098 114.20622467 99.47361755 114.7480011 C104.69104835 119.62694839 109.83774653 124.58073273 114.96349621 129.55574131 C118.39813134 132.88804429 121.85138415 136.19345259 125.36401367 139.44360352 C151.16943869 163.36619068 151.16943869 163.36619068 152.31941223 176.58177185 C152.29649227 180.58987354 151.99587601 184.44585807 151.37051392 188.40402222 C150.81562003 192.29184434 150.91616352 196.07881933 151 200 C147.18213176 198.25671719 145.63127021 196.28908776 143 193 C141.79687064 191.91022243 140.57279811 190.84335707 139.3347168 189.79345703 C135.17285148 186.19433952 131.26825909 182.39701 127.39453125 178.4921875 C126.70743576 177.80367706 126.02034027 177.11516663 125.31242371 176.40579224 C123.14339384 174.23122673 120.97788322 172.05319614 118.8125 169.875 C117.34984371 168.40731851 115.88695496 166.93986866 114.42382812 165.47265625 C111.740504 162.78121351 109.05851136 160.08845991 106.37817383 157.39404297 C105.79943512 156.81297791 105.22069641 156.23191284 104.62442017 155.63323975 C103.14850113 154.1493074 101.67691072 152.66107295 100.20581055 151.17236328 C98.02273969 148.94792069 98.02273969 148.94792069 95.5 147 C92.78452998 144.82762399 90.44672678 142.47402638 88 140 C86.85875062 138.85739562 85.71677223 137.71551909 84.57421875 136.57421875 C76.19140625 128.19140625 67.80859375 119.80859375 59.42578125 111.42578125 C58.83748535 110.83877441 58.24918945 110.25176758 57.64306641 109.64697266 C56.16285207 108.16323924 54.69581718 106.66638569 53.23046875 105.16796875 C51.00043312 102.86872579 51.00043312 102.86872579 48 101 C48 100.34 48 99.68 48 99 C47.42444366 98.75008804 46.84888733 98.50017609 46.25588989 98.24269104 C43.68174766 96.82468589 41.97235628 95.20569101 39.90576172 93.11694336 C39.11168915 92.31949203 38.31761658 91.52204071 37.4994812 90.70042419 C36.65144928 89.83893265 35.80341736 88.9774411 34.9296875 88.08984375 C34.05224884 87.20720352 33.17481018 86.32456329 32.27078247 85.41517639 C29.94347304 83.07307161 27.62028733 80.72698316 25.29943848 78.378479 C22.02330685 75.06430506 18.74193282 71.75535053 15.45779419 68.44911194 C13.70998749 66.68901146 11.96486025 64.92624555 10.22262573 63.16062927 C9.43485748 62.36633011 8.64708923 61.57203094 7.83544922 60.75366211 C7.14135956 60.05131943 6.4472699 59.34897675 5.73214722 58.62535095 C4.08232246 56.92203324 4.08232246 56.92203324 2 56 C2 55.34 2 54.68 2 54 C1.46632812 53.79503906 0.93265625 53.59007812 0.3828125 53.37890625 C-2.99937434 51.42167354 -5.43037488 48.7403035 -8.125 45.9375 C-11.69553366 41.9955106 -11.69553366 41.9955106 -16 39 C-15.91615817 64.72969232 -15.8210463 90.45932154 -15.71247292 116.18892193 C-15.66232531 128.13529362 -15.61588261 140.08165837 -15.578125 152.02807617 C-15.54521077 162.43909908 -15.50538266 172.8500685 -15.45720994 183.2610324 C-15.43193935 188.77487163 -15.41015967 194.28867535 -15.39665604 199.80255699 C-15.38384085 204.9907595 -15.36179216 210.17884027 -15.33261681 215.36697578 C-15.32353681 217.2725175 -15.31784982 219.17807882 -15.31578636 221.08364105 C-15.31246683 223.68319333 -15.2969977 226.28239979 -15.2784729 228.88188171 C-15.28040763 229.63772527 -15.28234237 230.39356882 -15.28433573 231.17231673 C-15.24138128 235.19801728 -14.90884228 238.41888213 -13 242 C-9.69715885 243.57413211 -5.88373025 243.06552286 -2.29296875 242.9921875 C-0.98392578 242.97542969 0.32511719 242.95867187 1.67382812 242.94140625 C3.74087875 242.91055109 5.80750649 242.87511235 7.87426758 242.82861328 C22.31715012 242.52120767 22.31715012 242.52120767 28 246 C30.89221266 249.12054524 32.82841806 251.4900789 33.3125 255.75 C32.84448782 260.61732665 30.39156673 263.60843327 27 267 C17.99743971 269.27575302 8.95503081 269.18023514 -0.25 268.75 C-1.45140625 268.71003906 -2.6528125 268.67007812 -3.890625 268.62890625 C-14.77694957 268.18724615 -23.50507076 267.2654 -32 260 C-39.69909122 251.59351365 -41.14967536 243.22936498 -41.14717102 232.15229797 C-41.15084771 231.27288534 -41.1545244 230.3934727 -41.1583125 229.4874112 C-41.16930741 226.54669589 -41.17318602 223.60601596 -41.17700195 220.6652832 C-41.18326971 218.554193 -41.18991679 216.4431039 -41.19691467 214.33201599 C-41.21791823 207.4049455 -41.22831279 200.47787489 -41.23828125 193.55078125 C-41.24233002 191.16310299 -41.24644698 188.77542484 -41.25063133 186.38774681 C-41.26967392 175.1702859 -41.28390758 163.95283154 -41.2922433 152.73535758 C-41.30201613 139.79870457 -41.32834094 126.86222265 -41.36874419 113.92562991 C-41.39892519 103.91777507 -41.41371402 93.90996921 -41.41702431 83.90206975 C-41.41937226 77.928622 -41.42830003 71.95535721 -41.45348549 65.98195839 C-41.47680614 60.3602619 -41.48098323 54.73886837 -41.47072411 49.117136 C-41.47022963 47.0592803 -41.47652382 45.00140948 -41.49028015 42.9435997 C-41.56421195 31.22411413 -41.25999509 21.66799117 -35.4375 11.1875 C-26.92501191 3.54808762 -18.22644537 1.83870402 -7.0625 1.9375 C-6.03672852 1.94426758 -6.03672852 1.94426758 -4.99023438 1.95117188 C-3.32678396 1.9628044 -1.6633795 1.98073306 0 2 C0 1.34 0 0.68 0 0 Z " fill="#008BFD" transform="translate(78,65)"/>
<path d="M0 0 C8.71017327 6.22724278 14.0308317 13.58952662 16.55859375 24.00390625 C17.87945843 32.9694214 16.4519341 41.1530658 12 49 C11.443125 50.010625 10.88625 51.02125 10.3125 52.0625 C6.27271554 57.1941181 1.16385314 62.52435407 -5 65 C-5.99 65 -6.98 65 -8 65 C-7.99815641 65.5961571 -7.99631283 66.19231421 -7.99441338 66.80653667 C-7.95009317 81.36511197 -7.91707513 95.92368327 -7.89637566 110.4823103 C-7.88609747 117.52298098 -7.87210393 124.56360642 -7.84912109 131.60424805 C-7.8269292 138.40587603 -7.81541233 145.2074571 -7.81024551 152.00911903 C-7.80656596 154.59688364 -7.79938092 157.18464585 -7.78853989 159.77239037 C-7.77390481 163.41236175 -7.77202707 167.05214235 -7.77294922 170.69213867 C-7.76575867 171.74878723 -7.75856812 172.80543579 -7.75115967 173.894104 C-7.80308062 192.98190062 -12.41348223 209.34931076 -25.875 223.3125 C-38.39034801 235.20678563 -53.18645601 240.87680228 -70.50390625 241.03125 C-88.84037374 240.21174307 -104.35217072 233.32852842 -117 220 C-129.20056176 205.72629591 -131.32582873 188.9904148 -131.1953125 170.9296875 C-131.19157458 169.39698472 -131.1887313 167.86427953 -131.18673706 166.33157349 C-131.17916183 162.33017179 -131.15956714 158.32891916 -131.1373291 154.32757568 C-131.11673775 150.23142512 -131.10770714 146.13525008 -131.09765625 142.0390625 C-131.07631441 134.02597385 -131.04225389 126.01300556 -131 118 C-126.64045015 119.91778507 -124.71880197 122.8709496 -122.16796875 126.7578125 C-121.46235054 127.80885666 -121.46235054 127.80885666 -120.74247742 128.88113403 C-119.70858859 130.42295945 -118.67871151 131.96748048 -117.65228271 133.51428223 C-115.94032248 136.08977972 -114.21348518 138.65475121 -112.48291016 141.21777344 C-109.37908159 145.8177457 -106.28995199 150.42733461 -103.20727539 155.04150391 C-101.92642367 156.95692268 -100.64348955 158.87095032 -99.35864258 160.78369141 C-97.48074691 163.57941242 -95.60882177 166.37904177 -93.73828125 169.1796875 C-93.16032303 170.03787079 -92.58236481 170.89605408 -91.9868927 171.78024292 C-91.19927803 172.9638591 -91.19927803 172.9638591 -90.39575195 174.17138672 C-89.93151321 174.86481171 -89.46727448 175.55823669 -88.9889679 176.27267456 C-88 178 -88 178 -88 180 C-94.6 180 -101.2 180 -108 180 C-105.11586792 192.20209727 -102.36922893 202.89073601 -91.609375 210.52734375 C-81.44170938 216.26568198 -70.01732086 217.80565088 -58.75 214.8125 C-54.62644479 213.42911374 -51.15772708 211.4640768 -47.59375 208.98828125 C-46 208 -46 208 -44 208 C-44 207.34 -44 206.68 -44 206 C-43.34 206 -42.68 206 -42 206 C-41.73316406 205.45988281 -41.46632813 204.91976562 -41.19140625 204.36328125 C-40.32364319 202.64198075 -39.43236085 200.93247703 -38.52734375 199.23046875 C-38.00269531 198.22628906 -37.47804688 197.22210938 -36.9375 196.1875 C-36.41027344 195.19105469 -35.88304687 194.19460938 -35.33984375 193.16796875 C-32.39492386 186.20490743 -32.86167422 178.81090674 -32.88647461 171.37329102 C-32.88632858 170.2213475 -32.88618256 169.06940399 -32.8860321 167.8825531 C-32.88672662 164.08965141 -32.89449744 160.29679933 -32.90234375 156.50390625 C-32.90420957 153.86832201 -32.9056327 151.23273742 -32.90663147 148.59715271 C-32.90973253 142.37833348 -32.91792933 136.15953195 -32.92798096 129.9407205 C-32.93918024 122.85726131 -32.94466214 115.77380124 -32.94967639 108.69033539 C-32.96011302 94.12688116 -32.97768863 79.56344083 -33 65 C-33.94166016 64.69835937 -34.88332031 64.39671875 -35.85351562 64.0859375 C-43.68371515 61.38352227 -48.8881723 55.75359198 -52.78125 48.60546875 C-57.46899511 38.5839111 -58.60903895 29.02569857 -55.03125 18.44140625 C-50.95594688 8.79343484 -43.64221884 0.65292023 -33.9375 -3.5 C-22.46933879 -7.08179265 -10.34973482 -6.21284954 0 0 Z M-33.375 23.8125 C-35.94574647 28.85511808 -35.47726937 32.34359454 -33.9375 37.6875 C-30.86351318 42.94302585 -27.24844801 44.39773714 -21.5 45.9375 C-16.3121933 46.03013941 -12.83074236 44.33594713 -8.6875 41.3125 C-6.32039013 38.06868277 -5.22324117 34.969507 -5 31 C-5.75578654 26.20547913 -7.07142468 22.90592714 -10.5625 19.5 C-19.00805866 14.30273313 -27.09976387 16.38129932 -33.375 23.8125 Z " fill="#00E8CC" transform="translate(270,141)"/>
<path d="M0 0 C29.49318339 11.80921875 50.59911358 9.22639736 79.65942383 -2.44482422 C90.39078262 -6.68454498 101.21420686 -9.84401882 112.82641602 -9.85571289 C114.10387695 -9.87504883 115.38133789 -9.89438477 116.69750977 -9.91430664 C128.75670665 -9.12947781 140.63333214 -4.05103535 151.82641602 0.20678711 C172.85742098 8.1688419 190.2593922 11.10824581 211.71142578 2.34008789 C217.01969148 0.19442504 220.65392113 -1.12461499 226.38891602 0.58178711 C230.20082059 3.81361925 232.18896128 5.84884609 232.76391602 10.83178711 C232.31136219 15.35732539 230.64402866 17.59555736 227.38891602 20.58178711 C225.01756648 22.09032812 222.55619229 23.16292781 219.95141602 24.20678711 C219.24186768 24.4981958 218.53231934 24.78960449 217.80126953 25.08984375 C215.67265574 25.94552129 213.53337125 26.76677164 211.38891602 27.58178711 C210.28290039 28.02135742 209.17688477 28.46092773 208.03735352 28.91381836 C185.65865607 36.61840641 163.42704306 30.07763541 142.60620117 21.19946289 C126.56742568 14.4610658 110.09161633 11.57134571 93.38891602 17.58178711 C92.69926758 17.82880371 92.00961914 18.07582031 91.29907227 18.33032227 C85.64390866 20.36517983 80.01577338 22.470221 74.38891602 24.58178711 C69.74557506 26.31997193 65.08638982 27.99464559 60.38891602 29.58178711 C59.49172852 29.90276367 58.59454102 30.22374023 57.67016602 30.55444336 C34.82065634 37.61284074 14.02957147 29.99287298 -6.94311523 21.44897461 C-21.64285804 15.51214082 -36.8955567 11.72810978 -52.30249023 17.60913086 C-53.14682617 17.97135742 -53.99116211 18.33358398 -54.86108398 18.70678711 C-59.46970951 20.67451486 -62.61308823 21.25948145 -67.61108398 20.58178711 C-71.01125388 18.51211847 -73.52921095 16.47653005 -74.61108398 12.58178711 C-74.53907135 8.04499102 -74.33139416 5.64983324 -71.79858398 1.89428711 C-49.2474178 -14.46636287 -23.91105959 -9.57973257 0 0 Z " fill="#008DFE" transform="translate(168.611083984375,412.418212890625)"/>
<path d="M0 0 C0.99 0.33 1.98 0.66 3 1 C5.02034678 1.04434232 7.04204845 1.03927974 9.0625 1 C14.77829638 0.88914819 14.77829638 0.88914819 17 2 C18.51050082 2.05650315 20.02369104 2.0477408 21.53466797 2.00585938 C22.47680145 1.9825354 23.41893494 1.95921143 24.38961792 1.93518066 C25.41346588 1.90500854 26.43731384 1.87483643 27.4921875 1.84375 C29.66406159 1.79032748 31.83593662 1.73694333 34.0078125 1.68359375 C37.42844037 1.59321726 40.84900043 1.50071431 44.26953125 1.40673828 C47.57280182 1.31781147 50.87620303 1.23677788 54.1796875 1.15625 C55.18329315 1.12607788 56.1868988 1.09590576 57.22091675 1.06481934 C63.308321 0.91899515 69.23743699 1.19613612 75.29937744 1.76300049 C78.57856748 2.05077356 81.82996265 2.12937015 85.12109375 2.1328125 C86.92416992 2.13474609 86.92416992 2.13474609 88.76367188 2.13671875 C90.5822168 2.13091797 90.5822168 2.13091797 92.4375 2.125 C93.67693359 2.12886719 94.91636719 2.13273437 96.19335938 2.13671875 C97.38638672 2.13542969 98.57941406 2.13414063 99.80859375 2.1328125 C101.41432251 2.13112061 101.41432251 2.13112061 103.05249023 2.12939453 C105.81895854 2.00794765 108.29674222 1.56249211 111 1 C115 1 115 1 118.67236328 1.49169922 C123.20629717 2.08511866 127.67469994 2.14429046 132.2421875 2.1328125 C133.09177032 2.13376923 133.94135315 2.13472595 134.81668091 2.13571167 C136.59653803 2.13638754 138.37639771 2.13457496 140.15625 2.13037109 C142.88807623 2.12497417 145.61974104 2.13035657 148.3515625 2.13671875 C150.08593786 2.13605865 151.82031313 2.13477889 153.5546875 2.1328125 C154.37234589 2.13483673 155.19000427 2.13686096 156.03244019 2.13894653 C160.1483125 2.2258415 160.1483125 2.2258415 164 1 C166.68907238 1.27346499 169.32970507 1.6020925 172 2 C173.33331716 2.18761498 174.66664912 2.37512483 176 2.5625 C176.99 2.706875 177.98 2.85125 179 3 C179.33 2.34 179.66 1.68 180 1 C182.31 1.66 184.62 2.32 187 3 C187.33 2.34 187.66 1.68 188 1 C189.794375 1.2475 189.794375 1.2475 191.625 1.5 C195.10870755 1.93777564 198.4849936 2.08174433 202 2 C202.99 2 203.98 2 205 2 C205.33 1.67 205.66 1.34 206 1 C206.33 1.66 206.66 2.32 207 3 C208.1446875 2.4740625 208.1446875 2.4740625 209.3125 1.9375 C212 1 212 1 215 2 C216.85227252 2.09357692 218.7078718 2.12993909 220.5625 2.125 C222.01849609 2.12886719 222.01849609 2.12886719 223.50390625 2.1328125 C225.99952953 2.16650953 225.99952953 2.16650953 228 1 C228.94875 1.165 229.8975 1.33 230.875 1.5 C236.2494873 2.40145328 241.62126727 1.57408477 247 1 C247 1.66 247 2.32 247 3 C248.00015137 2.83773926 249.00030273 2.67547852 250.03076172 2.50830078 C253.86824863 1.96239272 257.62896898 1.87062663 261.5078125 1.8671875 C262.19632294 1.86623077 262.88483337 1.86527405 263.59420776 1.86428833 C265.03790377 1.86361268 266.48160293 1.86542367 267.92529297 1.86962891 C270.1260461 1.87500255 272.32659672 1.86965454 274.52734375 1.86328125 C275.93750045 1.86394182 277.34765702 1.86522254 278.7578125 1.8671875 C280.0277002 1.86831543 281.29758789 1.86944336 282.60595703 1.87060547 C285.54244033 1.98255599 288.15099128 2.31577587 291 3 C291.33 2.34 291.66 1.68 292 1 C292.99386719 1.16242188 293.98773438 1.32484375 295.01171875 1.4921875 C298.9546801 2.05419106 302.82783065 2.1329455 306.8125 2.125 C308.11832031 2.12757812 309.42414063 2.13015625 310.76953125 2.1328125 C313.89038678 2.22567955 313.89038678 2.22567955 316 1 C324.20588235 0.73529412 324.20588235 0.73529412 328 2 C328 1.34 328 0.68 328 0 C329.010625 0.33 330.02125 0.66 331.0625 1 C334.76914292 2.07080796 338.13965616 2.07148785 342 2 C343.67557379 2.28520405 345.34817245 2.59955696 347 3 C347.33 2.34 347.66 1.68 348 1 C348.53109375 1.15855469 349.0621875 1.31710938 349.609375 1.48046875 C352.50599584 2.10996315 355.28882693 2.18970254 358.25 2.3125 C368.18039571 3.07808358 372.8428483 6.24629039 379.3359375 13.68359375 C383.20351236 19.06733058 383.30301823 23.89222721 383.31884766 30.30175781 C383.32888762 31.23622396 383.33892757 32.1706901 383.34927177 33.1334734 C383.38022782 36.24001782 383.39720441 39.34647457 383.4140625 42.453125 C383.43291498 44.64465527 383.45258394 46.83617865 383.47302246 49.0276947 C383.52504574 54.8888799 383.56464717 60.75008622 383.60129547 66.61138535 C383.63292306 71.466179 383.67110306 76.32091218 383.70925713 81.17565823 C383.81868865 95.14217008 383.90731418 109.10874973 383.98388672 123.0754776 C383.99856746 125.73999819 384.01381312 128.40451474 384.02929688 131.06903076 C384.12187362 147.20848593 384.13634947 163.34571771 384.02282715 179.48510742 C384.00213862 182.67069752 383.9861059 185.85628177 383.97165108 189.0419054 C383.93863686 196.23064569 383.88856734 203.41897848 383.81288338 210.60740376 C383.7763394 214.07978557 383.74508105 217.55196038 383.72955322 221.02450562 C383.70834605 224.83841931 383.6620306 228.65125146 383.609375 232.46484375 C383.60813629 233.58808044 383.60689758 234.71131714 383.60562134 235.86859131 C383.4544356 243.99275842 381.94579239 250.90312066 377.140625 257.5859375 C367.89233183 266.33742154 359.78036491 268.07694288 347.33789062 268.57006836 C346.27942177 268.61260962 345.22095291 268.65515089 344.13040924 268.69898129 C331.94833421 269.13962997 319.78036014 269.0239669 307.59375 268.87890625 C305.16182989 268.85451783 302.72990421 268.83067918 300.29797363 268.80735779 C293.98532626 268.74538216 287.67278116 268.67608431 281.36022949 268.60510254 C274.88342838 268.53362281 268.4065564 268.46928734 261.9296875 268.40429688 C249.28638086 268.27640491 236.64316694 268.14099787 224 268 C223.67 267.34 223.34 266.68 223 266 C223.67622847 265.99668985 224.35245693 265.99337971 225.04917717 265.98996925 C241.53453299 265.90860353 258.01979031 265.81646708 274.50501823 265.71247292 C282.47728448 265.66243862 290.44954092 265.61599497 298.421875 265.578125 C305.37388228 265.54509252 312.32581131 265.50519988 319.27773201 265.45720994 C322.95569815 265.43205635 326.63361313 265.41024279 330.31164169 265.39665604 C334.42646194 265.38132682 338.54103598 265.35067599 342.65576172 265.31884766 C343.86345718 265.31668747 345.07115265 265.31452728 346.31544495 265.31230164 C357.00034793 265.20700709 366.076236 264.72200149 374 257 C380.23820611 248.95599738 381.15094722 241.03294935 381.14044189 231.17680359 C381.14341302 230.30006337 381.14638414 229.42332316 381.1494453 228.52001506 C381.15810216 225.58844756 381.15963798 222.65692105 381.16113281 219.7253418 C381.16576306 217.6208589 381.17078799 215.51637684 381.17617798 213.41189575 C381.18928263 207.69901935 381.19574297 201.98615468 381.20018864 196.2732656 C381.20312201 192.70285939 381.20722728 189.13245637 381.21169281 185.56205177 C381.22536159 174.38730786 381.23503173 163.21257126 381.2388947 152.03781956 C381.24337643 139.14475796 381.26093233 126.25180232 381.2898953 113.35877293 C381.31151645 103.38746635 381.32159919 93.41618958 381.32293582 83.4448598 C381.32398337 77.49163252 381.329881 71.53850493 381.34775543 65.58530235 C381.36424389 59.98498832 381.36638776 54.38484886 381.35761642 48.7845192 C381.35684652 46.73227915 381.36118264 44.68002969 381.37107468 42.62781334 C381.3838136 39.81971792 381.37790678 37.01223903 381.36749268 34.20414734 C381.37554908 33.39790175 381.38360548 32.59165615 381.39190602 31.76097888 C381.33081804 24.68657073 379.70759138 18.66183362 375.875 12.6875 C369.58955441 6.81197477 362.04933985 4.87776211 353.62678909 4.86857224 C352.30703496 4.86473109 350.98728083 4.86088995 349.62753415 4.8569324 C348.15918043 4.85771265 346.69082676 4.85859144 345.22247314 4.85955811 C343.66554718 4.85697461 342.10862188 4.85396149 340.55169749 4.8505547 C336.26638157 4.84247963 331.9810824 4.84069485 327.69575977 4.83995724 C323.0766791 4.83810757 318.45760714 4.83056068 313.83853149 4.82382202 C303.73524883 4.8102347 293.63197013 4.8042134 283.52867985 4.79981136 C277.22151925 4.79704969 270.91436018 4.79281248 264.60720062 4.78830719 C247.14837871 4.77611414 229.68955804 4.76581481 212.23073196 4.7624321 C211.11312789 4.76221253 209.99552382 4.76199297 208.84405296 4.76176675 C207.16361156 4.76143933 207.16361156 4.76143933 205.44922185 4.7611053 C203.17903852 4.76066183 200.9088552 4.76021527 198.63867188 4.75976562 C197.51257998 4.7595442 196.38648809 4.75932277 195.2262722 4.75909463 C176.97690839 4.75514607 158.7275845 4.73769044 140.47823611 4.7144061 C121.7469837 4.69069958 103.01575133 4.67823057 84.28448367 4.67706418 C73.76551309 4.67614704 63.24659451 4.67038491 52.72763824 4.65224457 C43.77099875 4.63685305 34.81442735 4.63171753 25.85777715 4.63998267 C21.28770561 4.64389249 16.71777123 4.64294335 12.14771652 4.62892532 C7.96295419 4.61620647 3.77843236 4.61736615 -0.40632954 4.62951604 C-1.9191306 4.63147653 -3.43194857 4.62837833 -4.94472584 4.61967167 C-15.27745583 4.56397409 -23.67506353 5.15505223 -32 12 C-37.21394082 18.83449 -38.14928 24.22442152 -38.14044189 32.73454285 C-38.14341302 33.62590842 -38.14638414 34.51727399 -38.1494453 35.43565065 C-38.15813127 38.4287082 -38.15964047 41.42172575 -38.16113281 44.41479492 C-38.16576109 46.55839117 -38.17078577 48.70198659 -38.17617798 50.84558105 C-38.18930385 56.67427468 -38.19574742 62.50295679 -38.20018864 68.33166289 C-38.20311933 71.97341743 -38.20722415 75.61516882 -38.21169281 79.25692177 C-38.22536882 90.65165416 -38.23503472 102.04637935 -38.2388947 113.44111937 C-38.24337452 126.59342249 -38.26091853 139.74562163 -38.2898953 152.89789313 C-38.31151625 163.06448682 -38.32159922 173.23105127 -38.32293582 183.39766771 C-38.32398363 189.46941359 -38.32988645 195.54106176 -38.34775543 201.61278343 C-38.36424294 207.32633697 -38.36638821 213.03971941 -38.35761642 218.75328827 C-38.35684639 220.84745301 -38.36118425 222.94162698 -38.37107468 225.03576851 C-38.38381002 227.90089474 -38.37790859 230.76541641 -38.36749268 233.63053894 C-38.37554908 234.45371257 -38.38360548 235.27688619 -38.39190602 236.12500447 C-38.31886167 244.75215951 -36.0326006 251.85611524 -30.1171875 258.203125 C-26.49187526 261.27995827 -22.3613957 263.17470763 -18 265 C-18 265.33 -18 265.66 -18 266 C-24.48522045 265.72978248 -28.35212332 263.49703281 -33 259 C-39.95585946 250.81573269 -41.30766318 242.27219594 -41.26742554 231.79153442 C-41.27195665 230.90955851 -41.27648776 230.0275826 -41.28115618 229.11888015 C-41.29373448 226.18743461 -41.29218409 223.25617643 -41.29052734 220.32470703 C-41.29651662 218.21317305 -41.30332308 216.10164125 -41.31088257 213.9901123 C-41.32850709 208.27106902 -41.3332364 202.55208564 -41.33451414 196.83301783 C-41.33593807 193.25637728 -41.34021221 189.67975186 -41.34550858 186.10311508 C-41.36399566 173.61544583 -41.37218066 161.1278192 -41.37060547 148.64013672 C-41.36940377 137.01520834 -41.3905152 125.39046553 -41.4220928 113.76558411 C-41.4482723 103.77040014 -41.45897209 93.77527673 -41.45769465 83.78005874 C-41.4571856 77.81672691 -41.46283765 71.85356016 -41.48405075 65.8902626 C-41.50346172 60.28082351 -41.50353785 54.67170654 -41.48901749 49.06225586 C-41.48693201 47.00924075 -41.49161464 44.95620532 -41.5037384 42.90322495 C-41.5683439 31.20104412 -41.25122353 21.65220235 -35.4375 11.1875 C-26.92501191 3.54808762 -18.22644537 1.83870402 -7.0625 1.9375 C-6.03672852 1.94426758 -6.03672852 1.94426758 -4.99023438 1.95117188 C-3.32678396 1.9628044 -1.6633795 1.98073306 0 2 C0 1.34 0 0.68 0 0 Z " fill="#046FDF" transform="translate(78,65)"/>
<path d="M0 0 C106.92 0 213.84 0 324 0 C324 4 324 4 322.375 5.796875 C321.59125 6.44140625 320.8075 7.0859375 320 7.75 C314.122307 12.77475192 308.74518155 18.22108816 303.359375 23.76660156 C302.36164063 24.78125488 302.36164063 24.78125488 301.34375 25.81640625 C300.74755859 26.42943604 300.15136719 27.04246582 299.53710938 27.67407227 C298 29 298 29 296 29 C296 29.66 296 30.32 296 31 C295.34 31 294.68 31 294 31 C294 31.66 294 32.32 294 33 C293.34 33 292.68 33 292 33 C292 33.66 292 34.32 292 35 C290.52877808 36.44874573 290.52877808 36.44874573 288.49560547 38.13110352 C284.1249354 41.8497796 280.09182602 45.81262673 276.0703125 49.90234375 C274.60169035 51.38359031 273.13293668 52.86470648 271.6640625 54.34570312 C269.37766588 56.65708093 267.09291719 58.97004646 264.81054688 61.28540039 C262.58893953 63.53702307 260.36130595 65.78253932 258.1328125 68.02734375 C257.44639679 68.72721909 256.75998108 69.42709442 256.05276489 70.1481781 C255.41805267 70.78626907 254.78334045 71.42436005 254.12939453 72.08178711 C253.57172394 72.64691513 253.01405334 73.21204315 252.43948364 73.79429626 C251 75 251 75 249 75 C248.01 76.98 248.01 76.98 247 79 C246.34 79 245.68 79 245 79 C244.01 80.98 244.01 80.98 243 83 C242.34 83 241.68 83 241 83 C241 83.66 241 84.32 241 85 C239.54814148 86.43185425 239.54814148 86.43185425 237.5300293 88.10107422 C232.96576227 91.98484506 228.74049043 96.1320297 224.51953125 100.3828125 C223.74365158 101.16010712 222.96777191 101.93740173 222.16838074 102.73825073 C219.71403844 105.19813896 217.26320918 107.66149275 214.8125 110.125 C213.15713455 111.78538908 211.5015376 113.44554741 209.84570312 115.10546875 C206.81082218 118.14847831 203.77725622 121.19278487 200.74536133 124.23876953 C200.09439484 124.89157898 199.44342834 125.54438843 198.7727356 126.21697998 C197.26245845 127.73601892 195.76146117 129.26427499 194.26245117 130.79443359 C192 133 192 133 189.77929688 134.72851562 C186.24298728 137.60784258 184.25393625 139.7055445 183.359375 144.265625 C183.21355821 148.04065973 183.30065188 151.72772018 183.5 155.5 C183.53609375 156.799375 183.5721875 158.09875 183.609375 159.4375 C183.70321556 162.62807905 183.83438122 165.81247549 184 169 C184.77085937 168.2059375 185.54171875 167.411875 186.3359375 166.59375 C187.34869317 165.56223959 188.36172852 164.53100373 189.375 163.5 C189.88289062 162.97535156 190.39078125 162.45070312 190.9140625 161.91015625 C192.23832604 160.56846819 193.61605865 159.28004185 195 158 C195.66 158 196.32 158 197 158 C197.33 157.01 197.66 156.02 198 155 C198.66 155 199.32 155 200 155 C198.56246045 158.31002696 196.77516456 160.43889464 194.1875 162.9375 C193.47464844 163.62972656 192.76179687 164.32195312 192.02734375 165.03515625 C191.35832031 165.68355469 190.68929687 166.33195313 190 167 C189.0925 167.94875 188.185 168.8975 187.25 169.875 C185.17607822 171.8337039 183.54428669 172.8133789 181 174 C180.82573793 169.44697246 180.69937962 164.89592242 180.61547852 160.34033203 C180.58047594 158.7940893 180.53285449 157.24807491 180.47192383 155.70263672 C179.91538845 141.21400994 179.91538845 141.21400994 183.6640625 136.8125 C185.08879389 135.51863523 186.53807223 134.25168398 188 133 C189.60962472 131.39474464 191.1860085 129.75993418 192.76469421 128.12426758 C195.13511539 125.67694504 197.54456612 123.26981122 199.95385742 120.86083984 C201.83085469 118.98162361 203.69966889 117.09450377 205.56835938 115.20703125 C206.7599284 114.01253356 207.95196829 112.81850536 209.14453125 111.625 C209.70284134 111.05950439 210.26115143 110.49400879 210.83638 109.91137695 C214.77113553 106 214.77113553 106 217 106 C217.3403125 105.13375 217.3403125 105.13375 217.6875 104.25 C219.34761639 101.40408619 221.39187957 100.00158079 224 98 C225.68133597 96.3481329 227.34615141 94.67938691 229 93 C229.83291061 92.16264816 230.66582123 91.32529633 231.52397156 90.46257019 C232.85728264 89.12021049 232.85728264 89.12021049 234.2175293 87.75073242 C239.22599246 82.70976067 244.23940459 77.6737426 249.25575542 72.64062023 C252.2845576 69.60132658 255.31143771 66.56016594 258.33422852 63.51489258 C261.26635669 60.56110517 264.20328113 57.61216742 267.14365578 54.66658974 C268.26299951 53.54354407 269.38057834 52.41873653 270.49637413 51.29216576 C272.04988537 49.72422754 273.60945015 48.16256796 275.1706543 46.60229492 C276.05714157 45.71136642 276.94362885 44.82043793 277.85697937 43.9025116 C280 42 280 42 282 42 C282.33 41.01 282.66 40.02 283 39 C283.66 39 284.32 39 285 39 C285 38.34 285 37.68 285 37 C286.35668945 35.66455078 286.35668945 35.66455078 288.30078125 34.0703125 C293.89808948 29.30995038 299.01942019 24.08890685 304.1875 18.875 C305.16838194 17.88908623 306.14950049 16.90340779 307.13085938 15.91796875 C308.93530568 14.10544559 310.73810452 12.29134218 312.53979492 10.47607422 C315.02116053 7.97870298 317.51061871 5.48938129 320 3 C214.4 2.67 108.8 2.34 0 2 C0 1.34 0 0.68 0 0 Z " fill="#0278EA" transform="translate(89,92)"/>
<path d="M0 0 C3.81190458 3.23183214 5.80004527 5.26705898 6.375 10.25 C5.92244617 14.77553828 4.25511265 17.01377025 1 20 C-1.37134953 21.50854101 -3.83272373 22.5811407 -6.4375 23.625 C-7.14704834 23.91640869 -7.85659668 24.20781738 -8.58764648 24.50805664 C-10.71626028 25.36373418 -12.85554477 26.18498453 -15 27 C-16.65902344 27.65935547 -16.65902344 27.65935547 -18.3515625 28.33203125 C-40.73025994 36.0366193 -62.96187296 29.4958483 -83.78271484 20.61767578 C-99.82149033 13.87927869 -116.29729969 10.9895586 -133 17 C-133.68964844 17.2470166 -134.37929688 17.4940332 -135.08984375 17.74853516 C-140.74500735 19.78339272 -146.37314264 21.88843389 -152 24 C-156.64334096 25.73818482 -161.3025262 27.41285848 -166 29 C-166.8971875 29.32097656 -167.794375 29.64195312 -168.71875 29.97265625 C-190.46958283 36.69166352 -210.75170544 30.15470847 -230.79882812 21.88623047 C-236.71077901 19.45387833 -242.58809761 17.4677854 -248.76171875 15.7890625 C-251 15 -251 15 -252 13 C-241.08976409 14.73178348 -230.34454959 18.35777704 -220.375 23.125 C-200.62379197 32.02800665 -178.06974318 31.36034677 -157.98730469 23.87744141 C-152.54146317 21.77620688 -147.13749421 19.58599196 -141.75 17.33984375 C-132.40794758 13.48070105 -124.07487267 10.87993468 -113.875 10.75 C-112.67617188 10.72421875 -111.47734375 10.6984375 -110.2421875 10.671875 C-99.97373055 11.1043899 -90.23451607 15.24224579 -80.8125 19 C-60.3948409 27.05804306 -38.62852159 32.68759123 -17 25 C-16.3822168 24.78537109 -15.76443359 24.57074219 -15.12792969 24.34960938 C-4.95815637 20.93102229 -4.95815637 20.93102229 3 14 C3.59750073 11.34326888 3.59750073 11.34326888 3.3125 8.6875 C3.26738281 7.80449219 3.22226562 6.92148437 3.17578125 6.01171875 C3.08876953 5.01591797 3.08876953 5.01591797 3 4 C-1.76608904 1.21617072 -5.74024424 1.86314445 -11 3 C-14.08647037 4.1216398 -17.05806796 5.37818436 -20.04296875 6.74609375 C-27.26349628 9.80790265 -33.57482317 10.31096659 -41.3125 10.25 C-42.81393555 10.26160156 -42.81393555 10.26160156 -44.34570312 10.2734375 C-45.7775293 10.26957031 -45.7775293 10.26957031 -47.23828125 10.265625 C-48.10493408 10.26336914 -48.97158691 10.26111328 -49.86450195 10.25878906 C-52 10 -52 10 -54 8 C-53.39341553 8.01160156 -52.78683105 8.02320313 -52.16186523 8.03515625 C-38.63088631 8.17728038 -27.17297215 6.85130827 -14.57788086 1.70703125 C-9.29995419 -0.41803997 -5.69969924 -1.68416919 0 0 Z " fill="#0779E6" transform="translate(395,413)"/>
<path d="M0 0 C4.75 0.875 4.75 0.875 7 2 C7 2.66 7 3.32 7 4 C7.5775 4.2475 8.155 4.495 8.75 4.75 C11.32939979 6.18299988 13.06121592 7.78424676 15 10 C15 10.66 15 11.32 15 12 C15.5775 12.226875 16.155 12.45375 16.75 12.6875 C19.5663661 14.33038023 21.08077114 16.39533227 23 19 C18 17 18 17 3 2 C2.67 67.34 2.34 132.68 2 200 C1.67 200 1.34 200 1 200 C-0.11355475 189.7832708 -0.13557555 179.64033091 -0.11352539 169.37988281 C-0.11324282 167.52591961 -0.11340261 165.6719563 -0.1139679 163.81799316 C-0.11425315 158.81885326 -0.10840047 153.81973766 -0.10139394 148.82060337 C-0.09511504 143.58358956 -0.09455303 138.3465751 -0.09336853 133.10955811 C-0.09026854 123.20764795 -0.0820732 113.30574891 -0.07201904 103.40384364 C-0.06081642 92.12445862 -0.05533702 80.84507305 -0.05032361 69.56568384 C-0.0398894 46.37711641 -0.02231589 23.18855883 0 0 Z " fill="#0275EB" transform="translate(59,101)"/>
<path d="M0 0 C4.72254335 1.49132948 4.72254335 1.49132948 6.125 4.0625 C6.41375 4.701875 6.7025 5.34125 7 6 C7.99 6.33 8.98 6.66 10 7 C10 7.66 10 8.32 10 9 C10.54114944 9.22368759 11.08229889 9.44737518 11.6398468 9.67784119 C14.74807404 11.41907139 17.18639865 13.72782058 19.76245117 16.15454102 C20.32713608 16.68038284 20.89182098 17.20622467 21.47361755 17.7480011 C26.69104835 22.62694839 31.83774653 27.58073273 36.96349621 32.55574131 C40.39813134 35.88804429 43.85138415 39.19345259 47.36401367 42.44360352 C73.16943869 66.36619068 73.16943869 66.36619068 74.31941223 79.58177185 C74.29649227 83.58987354 73.99587601 87.44585807 73.37051392 91.40402222 C72.81562003 95.29184434 72.91616352 99.07881933 73 103 C69.18213176 101.25671719 67.63127021 99.28908776 65 96 C63.79687064 94.91022243 62.57279811 93.84335707 61.3347168 92.79345703 C57.17285148 89.19433952 53.26825909 85.39701 49.39453125 81.4921875 C48.70743576 80.80367706 48.02034027 80.11516663 47.31242371 79.40579224 C45.14339384 77.23122673 42.97788322 75.05319614 40.8125 72.875 C39.34984371 71.40731851 37.88695496 69.93986866 36.42382812 68.47265625 C33.740504 65.78121351 31.05851136 63.08845991 28.37817383 60.39404297 C27.79943512 59.81297791 27.22069641 59.23191284 26.62442017 58.63323975 C25.14850113 57.1493074 23.67691072 55.66107295 22.20581055 54.17236328 C20.02273969 51.94792069 20.02273969 51.94792069 17.5 50 C13.53168603 46.82534882 9.94935636 43.78478378 8 39 C12.15126955 40.6187965 14.854184 43.66613372 17.875 46.8125 C20.92888926 49.97183045 23.9477918 53.01350049 27.3828125 55.76171875 C28.24648437 56.50035156 29.11015625 57.23898438 30 58 C30 58.66 30 59.32 30 60 C30.5775 60.2475 31.155 60.495 31.75 60.75 C34.32939979 62.18299988 36.06121592 63.78424676 38 66 C38 66.66 38 67.32 38 68 C38.53608887 68.20939209 39.07217773 68.41878418 39.62451172 68.63452148 C42.92204928 70.5300125 45.37324428 73.14763885 48.0078125 75.84765625 C48.57450653 76.41955185 49.14120056 76.99144745 49.72506714 77.58067322 C51.52987272 79.40325225 53.32783318 81.23239074 55.125 83.0625 C56.93017315 84.89528621 58.73678389 86.72659529 60.5463562 88.55503845 C61.67097536 89.69192031 62.79291063 90.83146458 63.91189575 91.97389221 C66.68030188 94.84743614 66.68030188 94.84743614 70 97 C71.18369027 81.15674399 71.18369027 81.15674399 66.75 66.75 C65.8425 65.8425 64.935 64.935 64 64 C63.175 63.13375 62.35 62.2675 61.5 61.375 C59.08394155 58.99739841 59.08394155 58.99739841 56.5625 57.125 C54.42686755 55.35398773 52.87424521 53.74079792 51.125 51.625 C48.59177744 48.57731836 45.88377082 46.04727706 42.80859375 43.5546875 C40.97074996 41.97485633 39.27464472 40.29021101 37.56620789 38.57290649 C35.75872916 36.75769725 33.94348722 34.95043835 32.12768555 33.14355469 C28.16340242 29.19703395 24.20214481 25.2474913 20.24194336 21.296875 C18.53091099 19.59091211 16.81898819 17.88584184 15.10620117 16.18164062 C12.63488184 13.7223719 10.16673638 11.2599574 7.69921875 8.796875 C6.92744797 8.0302655 6.15567719 7.26365601 5.36051941 6.47381592 C4.6559108 5.76928284 3.95130219 5.06474976 3.2253418 4.33886719 C2.60088669 3.71663269 1.97643158 3.09439819 1.33305359 2.45330811 C0 1 0 1 0 0 Z " fill="#037FEB" transform="translate(156,162)"/>
<path d="M0 0 C0.33 0 0.66 0 1 0 C1.09343408 22.19196561 1.16397471 44.3838988 1.20724869 66.57602119 C1.22787546 76.88017476 1.25599831 87.18420612 1.30175781 97.48828125 C1.34162199 106.46913289 1.36743198 115.44989604 1.37635398 124.4308337 C1.38156943 129.18637286 1.39383007 133.94165883 1.42292023 138.69711685 C1.45008267 143.17374118 1.45844332 147.65000817 1.45243073 152.12670708 C1.45353059 153.76901504 1.46147966 155.41133503 1.4768219 157.0535717 C1.49676364 159.29836902 1.49192509 161.54182233 1.48101807 163.78665161 C1.48470524 165.04213366 1.48839241 166.2976157 1.49219131 167.59114265 C0.76821851 172.6052905 -1.42068515 175.77379383 -5.39135742 178.85668945 C-8.39095363 180.17134636 -10.47268494 180.345358 -13.73828125 180.29296875 C-14.80498047 180.28330078 -15.87167969 180.27363281 -16.97070312 180.26367188 C-18.07349609 180.23853516 -19.17628906 180.21339844 -20.3125 180.1875 C-21.43462891 180.17396484 -22.55675781 180.16042969 -23.71289062 180.14648438 C-26.47575229 180.1112138 -29.23762829 180.06192235 -32 180 C-29.01459475 178.29259358 -26.80185609 177.73717738 -23.375 177.65625 C-22.50359375 177.62660156 -21.6321875 177.59695313 -20.734375 177.56640625 C-18.91145833 177.52213542 -17.08854167 177.47786458 -15.265625 177.43359375 C-14.39421875 177.40394531 -13.5228125 177.37429688 -12.625 177.34375 C-11.83351563 177.32505859 -11.04203125 177.30636719 -10.2265625 177.28710938 C-7.68843362 176.95982434 -6.12848441 176.42427308 -4 175 C-1.56175886 171.38406405 -1.55185392 167.5241308 -1.37890625 163.30126953 C-1.34116592 162.48299746 -1.3034256 161.66472538 -1.26454163 160.82165718 C-0.74266375 147.72247628 -0.89316144 134.601128 -0.93153763 121.49403906 C-0.9416593 117.56521462 -0.94505612 113.63638473 -0.94897461 109.70755005 C-0.95997488 99.76335363 -0.97955149 89.81918079 -1 79.875 C-1.02210385 69.09859388 -1.04262727 58.32219697 -1.05341816 47.54577267 C-1.05837114 42.88927774 -1.06818364 38.23282713 -1.08184814 33.57634997 C-1.08934202 30.67950124 -1.09262987 27.78265845 -1.0948143 24.88580132 C-1.09755692 22.91842258 -1.10533965 20.95105285 -1.11331177 18.98368835 C-1.11369251 12.56663638 -0.86431863 6.36046443 0 0 Z " fill="#047BEA" transform="translate(438,131)"/>
<path d="M0 0 C0.99 0.99 0.99 0.99 2 2 C1.58923945 9.89924139 -2.17599666 15.47791488 -7.875 20.6875 C-15.95403593 27.47748752 -23.50703769 28.1675982 -33.66210938 28.57006836 C-34.72057823 28.61260962 -35.77904709 28.65515089 -36.86959076 28.69898129 C-49.05166579 29.13962997 -61.21963986 29.0239669 -73.40625 28.87890625 C-75.83817011 28.85451783 -78.27009579 28.83067918 -80.70202637 28.80735779 C-87.01467374 28.74538216 -93.32721884 28.67608431 -99.63977051 28.60510254 C-106.11657162 28.53362281 -112.5934436 28.46928734 -119.0703125 28.40429688 C-131.71361914 28.27640491 -144.35683306 28.14099787 -157 28 C-157.33 27.34 -157.66 26.68 -158 26 C-157.32377153 25.99668985 -156.64754307 25.99337971 -155.95082283 25.98996925 C-139.46546701 25.90860353 -122.98020969 25.81646708 -106.49498177 25.71247292 C-98.52271552 25.66243862 -90.55045908 25.61599497 -82.578125 25.578125 C-75.62611772 25.54509252 -68.67418869 25.50519988 -61.72226799 25.45720994 C-58.04430185 25.43205635 -54.36638687 25.41024279 -50.68835831 25.39665604 C-46.57353806 25.38132682 -42.45896402 25.35067599 -38.34423828 25.31884766 C-37.13654282 25.31668747 -35.92884735 25.31452728 -34.68455505 25.31230164 C-23.99965207 25.20700709 -14.923764 24.72200149 -7 17 C-2.83369489 11.6276592 -0.93364431 6.69111754 0 0 Z " fill="#0979E6" transform="translate(459,305)"/>
<path d="M0 0 C3 0 3 0 4.61328125 1.57421875 C5.45439453 2.62029297 5.45439453 2.62029297 6.3125 3.6875 C9.31385853 7.27649294 12.36223974 10.07397544 16 13 C18.47720235 15.35924033 20.73701792 17.65540279 22.8125 20.375 C25.2210039 23.26520468 27.86119995 25.53505771 30.71484375 27.97265625 C35.00558935 31.77931773 38.97539597 35.91630717 43 40 C43.77988281 40.77988281 44.55976562 41.55976563 45.36328125 42.36328125 C47.37321151 44.37321151 49.37614559 46.38926284 51.375 48.41015625 C52.58329371 49.6276435 53.79162772 50.84509074 55 52.0625 C55.60328125 52.67416016 56.2065625 53.28582031 56.828125 53.91601562 C59.45037752 56.55251952 62.00812136 59.00638261 64.9375 61.30859375 C65.618125 61.86675781 66.29875 62.42492187 67 63 C67 63.66 67 64.32 67 65 C67.5775 65.226875 68.155 65.45375 68.75 65.6875 C71.58972308 67.34400513 72.95224536 69.42567988 75 72 C77.26749444 74.08139338 79.6172185 76.05227692 82 78 C80.515 78.495 80.515 78.495 79 79 C71.01538086 71.01538086 63.03076172 63.03076172 55.04614258 55.04614258 C54.5304068 54.53169586 54.01467102 54.01724915 53.48330688 53.48721313 C52.07556221 52.0757612 50.68129425 50.6509055 49.2878418 49.2253418 C47.0118351 46.87607062 47.0118351 46.87607062 44 45 C44 44.34 44 43.68 44 43 C43.42509827 42.75008804 42.85019653 42.50017609 42.25787354 42.24269104 C39.68028662 40.82403578 37.95207049 39.19921045 35.87402344 37.11694336 C34.67323151 35.92076637 34.67323151 35.92076637 33.44818115 34.70042419 C32.59387512 33.83893265 31.73956909 32.9774411 30.859375 32.08984375 C29.53610199 30.76588341 29.53610199 30.76588341 28.18609619 29.41517639 C26.32444583 27.55050648 24.46481138 25.68406914 22.60839844 23.81420898 C20.22370504 21.41246456 17.83241954 19.01741771 15.43880844 16.62456417 C13.15952905 14.34494844 10.88450731 12.06109735 8.609375 9.77734375 C7.74697205 8.91382797 6.88456909 8.05031219 5.99603271 7.16062927 C5.2081134 6.36633011 4.42019409 5.57203094 3.60839844 4.75366211 C2.90986755 4.05131943 2.21133667 3.34897675 1.49163818 2.62535095 C0 1 0 1 0 0 Z " fill="#027AEE" transform="translate(82,121)"/>
<path d="M0 0 C3 0 3 0 4.6484375 1.57421875 C5.21820313 2.27160156 5.78796875 2.96898438 6.375 3.6875 C6.99503906 4.42484375 7.61507812 5.1621875 8.25390625 5.921875 C8.83011719 6.60765625 9.40632813 7.2934375 10 8 C13.02908308 11.1928173 16.24400373 14.11183619 19.53271484 17.03100586 C24.91984645 21.87363836 30.05818444 26.93013571 35.1640625 32.06640625 C36.08214691 32.98590561 37.00023132 33.90540497 37.94613647 34.85276794 C40.35175037 37.26214567 42.75434263 39.67451343 45.15625 42.08758545 C47.62182763 44.56351145 50.09034526 47.0365027 52.55859375 49.50976562 C57.37522589 54.33702644 62.1886622 59.16746243 67 64 C64 64 64 64 61.36328125 61.62109375 C60.33874165 60.56724352 59.32210334 59.50566797 58.3125 58.4375 C55.13539838 55.11882373 51.94747982 51.9122706 48.4440918 48.93530273 C43.26515711 44.42828786 38.44118561 39.5846503 33.59375 34.7265625 C32.61883861 33.75232623 31.64377894 32.77823831 30.6685791 31.80429077 C28.64331276 29.78048672 26.61983642 27.75491495 24.59765625 25.72802734 C22.00062103 23.12524193 19.39904913 20.52704421 16.79616547 17.93010902 C14.79045372 15.9279973 12.78711287 13.92352697 10.78450012 11.91831589 C9.82511351 10.95826121 8.8649808 9.99895154 7.90409851 9.04039383 C6.57102392 7.70984227 5.24147055 6.37576557 3.91210938 5.04150391 C2.77582092 3.90402206 2.77582092 3.90402206 1.61657715 2.74356079 C0 1 0 1 0 0 Z " fill="#0178EC" transform="translate(89,96)"/>
<path d="M0 0 C-5.35593436 3.5706229 -10.85506202 5.25904171 -17 7 C-19.44243772 7.77629912 -21.87989638 8.56841337 -24.3125 9.375 C-24.96911621 9.59269043 -25.62573242 9.81038086 -26.30224609 10.03466797 C-29.97432558 11.26770128 -33.56161593 12.60866635 -37.125 14.125 C-50.82921401 19.66979712 -65.70794233 21.08344505 -80 17 C-80 16.67 -80 16.34 -80 16 C-78.98969727 16.0314209 -78.98969727 16.0314209 -77.95898438 16.06347656 C-53.6294141 16.71856724 -35.17775322 10.84870348 -12.86230469 2.05981445 C-8.34731636 0.38806724 -4.83455378 -0.10987622 0 0 Z " fill="#0479E7" transform="translate(269,405)"/>
<path d="M0 0 C0 3.71327642 -1.24216444 4.60160663 -3.76034546 7.15153503 C-4.30091583 7.68289566 -4.84148621 8.21425629 -5.3984375 8.76171875 C-5.94859528 9.31237503 -6.49875305 9.86303131 -7.06558228 10.43037415 C-8.23056267 11.59301323 -9.39923954 12.75195832 -10.57128906 13.9074707 C-12.36962668 15.68219723 -14.15426023 17.46988299 -15.9375 19.25976562 C-17.06952197 20.38621167 -18.20230906 21.51188943 -19.3359375 22.63671875 C-20.14072037 23.44286873 -20.14072037 23.44286873 -20.96176147 24.26530457 C-24.76898457 28 -24.76898457 28 -27 28 C-27.26482178 28.59530518 -27.52964355 29.19061035 -27.80249023 29.80395508 C-29.04156119 32.0762167 -30.25229714 33.40706174 -32.16015625 35.13671875 C-32.78510986 35.71019043 -33.41006348 36.28366211 -34.05395508 36.87451172 C-34.7167749 37.47279785 -35.37959473 38.07108398 -36.0625 38.6875 C-37.42317772 39.93217111 -38.78255514 41.17826521 -40.140625 42.42578125 C-41.1315918 43.33577881 -41.1315918 43.33577881 -42.14257812 44.26416016 C-45.32896551 47.24197486 -48.35214936 50.36891838 -51.36328125 53.5234375 C-53 55 -53 55 -55 55 C-53.92100995 51.76302985 -53.416939 51.29675608 -50.875 49.25 C-45.61859576 44.82809789 -40.88249422 39.90597844 -36.10498047 34.97949219 C-35.15969482 34.0170459 -35.15969482 34.0170459 -34.1953125 33.03515625 C-33.62828613 32.4512915 -33.06125977 31.86742676 -32.47705078 31.26586914 C-31 30 -31 30 -29 30 C-28.7525 29.4225 -28.505 28.845 -28.25 28.25 C-26.81700012 25.67060021 -25.21575324 23.93878408 -23 22 C-22.34 22 -21.68 22 -21 22 C-20.74927734 21.41879395 -20.49855469 20.83758789 -20.24023438 20.23876953 C-18.83705877 17.70587183 -17.2804718 16.14245652 -15.15625 14.1796875 C-14.40472656 13.47972656 -13.65320313 12.77976562 -12.87890625 12.05859375 C-12.09386719 11.33800781 -11.30882812 10.61742188 -10.5 9.875 C-8.94783778 8.43498086 -7.39575093 6.99488047 -5.84375 5.5546875 C-5.15474609 4.92030762 -4.46574219 4.28592773 -3.75585938 3.63232422 C-2.48026838 2.44647865 -1.23153605 1.23153605 0 0 Z " fill="#0179ED" transform="translate(437,101)"/>
<path d="M0 0 C-0.8125 1.9375 -0.8125 1.9375 -2 4 C-2.99 4.33 -3.98 4.66 -5 5 C-5.68486725 6.32407669 -6.34870203 7.65909241 -7 9 C-9 11.25 -9 11.25 -11 13 C-11.66 13 -12.32 13 -13 13 C-13.66 14.32 -14.32 15.64 -15 17 C-15.66 17 -16.32 17 -17 17 C-17.495 18.485 -17.495 18.485 -18 20 C-19.44335938 21.42211914 -19.44335938 21.42211914 -21.34375 22.97265625 C-27.04424981 27.80917406 -32.24153064 33.13358072 -37.5 38.4375 C-38.52320139 39.4657298 -39.54663733 40.49372626 -40.5703125 41.52148438 C-43.04957999 44.01164338 -45.52567538 46.50492833 -48 49 C-48.99 48.67 -49.98 48.34 -51 48 C-48.50434749 45.47483195 -46.00267549 42.95570627 -43.5 40.4375 C-42.80390625 39.73302734 -42.1078125 39.02855469 -41.390625 38.30273438 C-38.10987019 35.00679089 -34.81672672 31.7946712 -31.2734375 28.78125 C-27.61546944 25.63253377 -24.21343154 22.27544973 -20.8203125 18.84765625 C-20.27667053 18.29851059 -19.73302856 17.74936493 -19.1729126 17.18357849 C-16.90888084 14.89176606 -14.64865993 12.59627005 -12.39257812 10.29663086 C-10.7269587 8.60099814 -9.05532413 6.91148699 -7.3828125 5.22265625 C-6.87138702 4.69777115 -6.35996155 4.17288605 -5.83303833 3.63209534 C-2.22662057 0 -2.22662057 0 0 0 Z " fill="#037CED" transform="translate(373,165)"/>
<path d="M0 0 C0 0.33 0 0.66 0 1 C-0.71430176 0.97905273 -1.42860352 0.95810547 -2.16455078 0.93652344 C-21.46850762 0.30817562 -21.46850762 0.30817562 -40 5 C-40.99644531 5.35835938 -41.99289063 5.71671875 -43.01953125 6.0859375 C-47.84419565 7.53253783 -47.84419565 7.53253783 -51 11 C-51.66 11 -52.32 11 -53 11 C-52.06753536 8.72327162 -51.43933141 7.2925381 -49.36328125 5.91015625 C-34.0686444 -0.41162698 -16.21762321 -7.48270751 0 0 Z " fill="#0679E6" transform="translate(149,406)"/>
<path d="M0 0 C0.33 0 0.66 0 1 0 C1.08636719 0.67546875 1.17273438 1.3509375 1.26171875 2.046875 C1.92786969 6.27601676 2.46234557 9.28312743 5.0625 12.75 C9.41003454 14.6000147 12.68698861 13.68710856 17 12 C18.00417969 11.31421875 19.00835937 10.6284375 20.04296875 9.921875 C25.02821908 6.9871616 30.32305003 7.56877629 35.9375 7.75 C37.53561523 7.77707031 37.53561523 7.77707031 39.16601562 7.8046875 C41.77828929 7.85154443 44.38866226 7.91713074 47 8 C47 8.33 47 8.66 47 9 C45.79085937 9.08636719 44.58171875 9.17273438 43.3359375 9.26171875 C33.83789085 10.04259352 25.85651739 11.44745471 16.9609375 14.94140625 C12.89341688 16.39562536 10.26264664 16.69752399 6 16 C2.5998301 13.93033136 0.08187304 11.89474294 -1 8 C-0.85317936 5.27333104 -0.45050267 2.70301602 0 0 Z " fill="#0877E3" transform="translate(95,417)"/>
<path d="M0 0 C4.75043103 -0.14870119 9.49949856 -0.25737512 14.25170898 -0.32958984 C15.86685796 -0.35970087 17.48184423 -0.40060063 19.09643555 -0.45263672 C21.42277163 -0.52571534 23.74694148 -0.5595088 26.07421875 -0.5859375 C26.79212082 -0.61690521 27.51002289 -0.64787292 28.24967957 -0.67977905 C31.09819314 -0.68167653 33.32842533 -0.55916405 35.56777954 1.30535889 C38.12422779 4.31347624 39.86744159 6.83348596 40.3125 10.75 C39.92590899 14.77054653 38.41771035 16.82675517 36 20 C35.505 19.01 35.505 19.01 35 18 C35.47566406 17.11054688 35.47566406 17.11054688 35.9609375 16.203125 C37.26721778 13.43341795 37.02112137 11.76052239 36.625 8.75 C36.51414063 7.85796875 36.40328125 6.9659375 36.2890625 6.046875 C36.19367188 5.37140625 36.09828125 4.6959375 36 4 C31.20242806 2.47313456 27.0463936 1.72123716 21.97265625 1.5859375 C20.68681641 1.54726563 19.40097656 1.50859375 18.07617188 1.46875 C16.73828582 1.43730501 15.40039511 1.40605741 14.0625 1.375 C12.69724244 1.33675658 11.33200736 1.2977013 9.96679688 1.2578125 C6.6446646 1.16390063 3.32253259 1.07822213 0 1 C0 0.67 0 0.34 0 0 Z " fill="#0371E1" transform="translate(71,310)"/>
<path d="M0 0 C13.53 0 27.06 0 41 0 C40.67 0.66 40.34 1.32 40 2 C32.22203119 3.36819281 24.48833651 2.98430639 16.625 2.6875 C15.35527344 2.65205078 14.08554688 2.61660156 12.77734375 2.58007812 C11.56433594 2.53689453 10.35132812 2.49371094 9.1015625 2.44921875 C8.00150879 2.41143311 6.90145508 2.37364746 5.76806641 2.3347168 C3 2 3 2 0 0 Z " fill="#0A7DE6" transform="translate(61,331)"/>
<path d="M0 0 C-1.44285743 3.41175662 -3.18339229 5.24848725 -6 7.625 C-12.29660769 13.1160123 -18.10027605 19.07464012 -23.9296875 25.05517578 C-24.68507813 25.82200684 -25.44046875 26.58883789 -26.21875 27.37890625 C-27.2387207 28.42413452 -27.2387207 28.42413452 -28.27929688 29.49047852 C-30 31 -30 31 -32 31 C-30.49055027 27.15776433 -28.23156958 25.48004177 -25 23 C-22.20076257 20.34431321 -19.64401099 17.59273084 -17.1875 14.625 C-14.34377731 11.25221263 -11.18931354 8.42615498 -7.828125 5.578125 C-5.85154029 3.91764787 -5.85154029 3.91764787 -3.625 1.5625 C-2 0 -2 0 0 0 Z " fill="#0476E7" transform="translate(322,215)"/>
<path d="M0 0 C7.52616387 0.44918639 13.7735138 3.05633567 20.6875 5.9375 C22.3590918 6.62102539 22.3590918 6.62102539 24.06445312 7.31835938 C26.13289608 8.16482225 28.19974842 9.01519093 30.2644043 9.87084961 C32.83590947 10.93226964 35.4150427 11.97184184 38 13 C34.59720057 14.17377953 32.78643209 13.84096698 29.47265625 12.5234375 C28.16880981 12.01490234 28.16880981 12.01490234 26.83862305 11.49609375 C25.92250244 11.12613281 25.00638184 10.75617188 24.0625 10.375 C22.66028198 9.82392578 22.66028198 9.82392578 21.22973633 9.26171875 C19.35557078 8.52478723 17.48305934 7.78363379 15.61230469 7.03808594 C12.14863049 5.66168008 8.66935231 4.32971402 5.1875 3 C3.45819156 2.33370118 1.72895903 1.66720497 0 1 C0 0.67 0 0.34 0 0 Z " fill="#0579E8" transform="translate(150,407)"/>
<path d="M0 0 C4.18868721 0.58945858 7.88710576 1.5590565 11.8359375 3.06640625 C13.43115234 3.6706543 13.43115234 3.6706543 15.05859375 4.28710938 C16.15300781 4.70798828 17.24742187 5.12886719 18.375 5.5625 C19.49261719 5.98724609 20.61023438 6.41199219 21.76171875 6.84960938 C24.50974139 7.89479747 27.25570752 8.94506524 30 10 C30 10.33 30 10.66 30 11 C20.07286618 10.08082094 6.97921583 7.70120368 0 0 Z " fill="#0577E9" transform="translate(310,410)"/>
<path d="M0 0 C0.33 0 0.66 0 1 0 C1.13535156 0.556875 1.27070312 1.11375 1.41015625 1.6875 C3.50622547 9.11787711 6.96298893 14.57543942 13.6796875 18.609375 C16.09226069 19.82591332 18.5080761 20.95710227 21 22 C21 22.33 21 22.66 21 23 C14.52290911 22.73012121 10.63494184 20.50358721 6 16 C2.25038597 11.45501329 -0.84806148 7.07754075 -1 1 C-0.67 0.67 -0.34 0.34 0 0 Z " fill="#0675E3" transform="translate(39,308)"/>
<path d="M0 0 C-0.56589844 0.27972656 -1.13179687 0.55945313 -1.71484375 0.84765625 C-4.01835981 2.00925837 -6.29548622 3.2061778 -8.5625 4.4375 C-9.70912109 5.05431641 -9.70912109 5.05431641 -10.87890625 5.68359375 C-14.98632886 8.23276764 -16.4874835 10.6736631 -18.1875 15.1875 C-18.53167969 16.08855469 -18.87585937 16.98960938 -19.23046875 17.91796875 C-19.48441406 18.60503906 -19.73835938 19.29210937 -20 20 C-20.66 20 -21.32 20 -22 20 C-21.0024667 13.21677357 -18.21615491 8.42239221 -13 4 C-4.51804933 -1.65969159 -4.51804933 -1.65969159 0 0 Z " fill="#0773E0" transform="translate(60,69)"/>
<path d="M0 0 C0.66 0 1.32 0 2 0 C1.90460938 0.66386719 1.80921875 1.32773437 1.7109375 2.01171875 C0.60480961 8.83457124 0.60480961 8.83457124 3 15 C6.05272465 15.89830839 6.05272465 15.89830839 9 16 C7.02 16.99 7.02 16.99 5 18 C-1.00735294 13.57352941 -1.00735294 13.57352941 -2 10 C-1.86812825 6.51580962 -1.57768234 3.15536468 0 0 Z " fill="#057DE6" transform="translate(294,314)"/>
<path d="M0 0 C5.98511371 0.34302035 10.75117306 0.82307843 16 4 C12.11764181 5.49828872 9.56550712 4.43110582 5.75 3.0625 C4.67234375 2.68222656 3.5946875 2.30195313 2.484375 1.91015625 C1.66453125 1.60980469 0.8446875 1.30945313 0 1 C0 0.67 0 0.34 0 0 Z " fill="#0478E8" transform="translate(293,405)"/>
<path d="M0 0 C1.37562854 1.28965176 2.70766393 2.62689293 4 4 C4 4.66 4 5.32 4 6 C5.98 6.66 7.96 7.32 10 8 C10 8.66 10 9.32 10 10 C5.07685806 8.76921451 2.73481808 7.31259775 0 3 C0 2.01 0 1.02 0 0 Z " fill="#0376E8" transform="translate(61,301)"/>
<path d="M0 0 C-1.5830577 4.2742558 -4.50568404 6.26531794 -8 9 C-7.53918323 4.85264908 -4.48412936 0 0 0 Z " fill="#047BED" transform="translate(322,215)"/>
<path d="M0 0 C2.93200474 2.85276137 5.64315404 5.65079784 8 9 C4.11980141 7.74155722 2.0588158 6.57583797 0 3 C0 2.01 0 1.02 0 0 Z " fill="#01D9D1" transform="translate(219,190)"/>
<path d="M0 0 C1.65 0 3.3 0 5 0 C4.01 0.66 3.02 1.32 2 2 C1.34 1.34 0.68 0.68 0 0 Z " fill="#0E8FEF" transform="translate(209,446)"/>
<path d="M0 0 C3 1 3 1 3 1 Z " fill="#0997FA" transform="translate(370,334)"/>
<path d="M0 0 C0.66 0.66 1.32 1.32 2 2 C1.34 2 0.68 2 0 2 C0 1.34 0 0.68 0 0 Z " fill="#0695FD" transform="translate(330,95)"/>
<path d="M0 0 C0.99 0.495 0.99 0.495 2 1 C1.01 1.495 1.01 1.495 0 2 C0 1.34 0 0.68 0 0 Z " fill="#0594FD" transform="translate(370,95)"/>
<path d="M0 0 C3 1 3 1 3 1 Z " fill="#0893FC" transform="translate(364,95)"/>
<path d="M0 0 C0.99 0.495 0.99 0.495 2 1 C1.01 1.495 1.01 1.495 0 2 C0 1.34 0 0.68 0 0 Z " fill="#0797FC" transform="translate(306,95)"/>
<path d="M0 0 C3 1 3 1 3 1 Z " fill="#0D85E7" transform="translate(66,65)"/>
<path d="M0 0 C2 1 2 1 2 1 Z " fill="#0D8DEE" transform="translate(203,446)"/>
<path d="M0 0 C2 1 2 1 2 1 Z " fill="#0B82E1" transform="translate(98,432)"/>
<path d="M0 0 C2 1 2 1 2 1 Z " fill="#0F93F5" transform="translate(295,429)"/>
<path d="M0 0 C2 1 2 1 2 1 Z " fill="#0E9EF9" transform="translate(259,404)"/>
<path d="M0 0 C2 1 2 1 2 1 Z " fill="#0C9CF9" transform="translate(283,401)"/>
<path d="M0 0 C2 1 2 1 2 1 Z " fill="#0C9EF9" transform="translate(275,401)"/>
<path d="M0 0 C2 1 2 1 2 1 Z " fill="#09B7F1" transform="translate(210,382)"/>
<path d="M0 0 C2 1 2 1 2 1 Z " fill="#0993F7" transform="translate(410,334)"/>
<path d="M0 0 C2 1 2 1 2 1 Z " fill="#0996F8" transform="translate(378,334)"/>
<path d="M0 0 C2 1 2 1 2 1 Z " fill="#0898F9" transform="translate(355,334)"/>
<path d="M0 0 C2 1 2 1 2 1 Z " fill="#099AFA" transform="translate(338,334)"/>
<path d="M0 0 C2 1 2 1 2 1 Z " fill="#0A9AFB" transform="translate(330,334)"/>
<path d="M0 0 C2 1 2 1 2 1 Z " fill="#0A9EF9" transform="translate(313,334)"/>
<path d="M0 0 C2 1 2 1 2 1 Z " fill="#0C98F7" transform="translate(90,334)"/>
<path d="" fill="#0D86E7" transform="translate(0,0)"/>
<path d="" fill="#0A89EE" transform="translate(0,0)"/>
<path d="" fill="#0B8DF2" transform="translate(0,0)"/>
<path d="" fill="#0D8BF0" transform="translate(0,0)"/>
<path d="" fill="#0C89EC" transform="translate(0,0)"/>
<path d="" fill="#0D88EB" transform="translate(0,0)"/>
<path d="" fill="#0695FE" transform="translate(0,0)"/>
<path d="" fill="#0695FD" transform="translate(0,0)"/>
<path d="" fill="#0694FD" transform="translate(0,0)"/>
<path d="" fill="#0695FD" transform="translate(0,0)"/>
<path d="M0 0 C2 1 2 1 2 1 Z " fill="#0693FC" transform="translate(373,95)"/>
<path d="M0 0 C2 1 2 1 2 1 Z " fill="#0792FA" transform="translate(341,95)"/>
<path d="M0 0 C2 1 2 1 2 1 Z " fill="#0894FB" transform="translate(325,95)"/>
<path d="M0 0 C2 1 2 1 2 1 Z " fill="#0895FB" transform="translate(301,95)"/>
<path d="M0 0 C2 1 2 1 2 1 Z " fill="#0998FA" transform="translate(261,95)"/>
<path d="" fill="#0E86E8" transform="translate(0,0)"/>
<path d="M0 0 C2 1 2 1 2 1 Z " fill="#0C8BEC" transform="translate(107,65)"/>
<path d="" fill="#0E8EED" transform="translate(0,0)"/>
<path d="" fill="#1090ED" transform="translate(0,0)"/>
<path d="" fill="#1189E8" transform="translate(0,0)"/>
<path d="" fill="#0F8BEC" transform="translate(0,0)"/>
<path d="" fill="#0E8BEC" transform="translate(0,0)"/>
<path d="" fill="#0F8BEB" transform="translate(0,0)"/>
<path d="" fill="#0D8FF0" transform="translate(0,0)"/>
<path d="" fill="#0E8DED" transform="translate(0,0)"/>
<path d="" fill="#0F8CED" transform="translate(0,0)"/>
<path d="" fill="#0F90EF" transform="translate(0,0)"/>
<path d="" fill="#0E8FEF" transform="translate(0,0)"/>
<path d="" fill="#0C92F1" transform="translate(0,0)"/>
<path d="" fill="#0B93F5" transform="translate(0,0)"/>
<path d="" fill="#0E92F2" transform="translate(0,0)"/>
<path d="" fill="#0E93EF" transform="translate(0,0)"/>
<path d="" fill="#0E90F6" transform="translate(0,0)"/>
<path d="" fill="#0B93F3" transform="translate(0,0)"/>
<path d="" fill="#0994F6" transform="translate(0,0)"/>
<path d="" fill="#0D8BE9" transform="translate(0,0)"/>
<path d="" fill="#0B93F6" transform="translate(0,0)"/>
<path d="" fill="#0B93F4" transform="translate(0,0)"/>
<path d="" fill="#0E8EEE" transform="translate(0,0)"/>
<path d="" fill="#0A91F5" transform="translate(0,0)"/>
<path d="" fill="#0C90F2" transform="translate(0,0)"/>
<path d="" fill="#0E94F5" transform="translate(0,0)"/>
<path d="" fill="#1193F5" transform="translate(0,0)"/>
<path d="" fill="#0E90EF" transform="translate(0,0)"/>
<path d="" fill="#0E9CF8" transform="translate(0,0)"/>
<path d="" fill="#0C9DF8" transform="translate(0,0)"/>
<path d="" fill="#0B9DFC" transform="translate(0,0)"/>
<path d="" fill="#0C95F8" transform="translate(0,0)"/>
<path d="" fill="#0D97F7" transform="translate(0,0)"/>
<path d="" fill="#0C9FF9" transform="translate(0,0)"/>
<path d="" fill="#0C9FF8" transform="translate(0,0)"/>
<path d="" fill="#0F9BF7" transform="translate(0,0)"/>
<path d="" fill="#0D9EF8" transform="translate(0,0)"/>
<path d="" fill="#0E9FF8" transform="translate(0,0)"/>
<path d="" fill="#138CE8" transform="translate(0,0)"/>
<path d="" fill="#0C9BF9" transform="translate(0,0)"/>
<path d="" fill="#0D9EF8" transform="translate(0,0)"/>
<path d="" fill="#0E9FFC" transform="translate(0,0)"/>
<path d="" fill="#0E97F4" transform="translate(0,0)"/>
<path d="" fill="#0C9CF7" transform="translate(0,0)"/>
<path d="" fill="#0A9DF9" transform="translate(0,0)"/>
<path d="" fill="#10A2FA" transform="translate(0,0)"/>
<path d="" fill="#08B5F1" transform="translate(0,0)"/>
<path d="" fill="#07B8F1" transform="translate(0,0)"/>
<path d="" fill="#08B8F1" transform="translate(0,0)"/>
<path d="" fill="#09B6F3" transform="translate(0,0)"/>
<path d="" fill="#06B7EC" transform="translate(0,0)"/>
<path d="" fill="#0AB4ED" transform="translate(0,0)"/>
<path d="" fill="#08B4ED" transform="translate(0,0)"/>
<path d="" fill="#06BEEF" transform="translate(0,0)"/>
<path d="" fill="#09BDF0" transform="translate(0,0)"/>
<path d="" fill="#06BCED" transform="translate(0,0)"/>
<path d="" fill="#07BFF0" transform="translate(0,0)"/>
<path d="" fill="#05B5ED" transform="translate(0,0)"/>
<path d="" fill="#09B6EE" transform="translate(0,0)"/>
<path d="" fill="#05B6EC" transform="translate(0,0)"/>
<path d="" fill="#0C9AF8" transform="translate(0,0)"/>
<path d="" fill="#0C91F5" transform="translate(0,0)"/>
<path d="" fill="#0C91F3" transform="translate(0,0)"/>
<path d="" fill="#0A93F2" transform="translate(0,0)"/>
<path d="" fill="#0B93F4" transform="translate(0,0)"/>
<path d="" fill="#0A95F5" transform="translate(0,0)"/>
<path d="" fill="#0A98F8" transform="translate(0,0)"/>
<path d="" fill="#0C97F8" transform="translate(0,0)"/>
<path d="" fill="#0899FA" transform="translate(0,0)"/>
<path d="" fill="#0A99F9" transform="translate(0,0)"/>
<path d="" fill="#0897FA" transform="translate(0,0)"/>
<path d="" fill="#0B9BFB" transform="translate(0,0)"/>
<path d="" fill="#0B9CFB" transform="translate(0,0)"/>
<path d="" fill="#0C9FFB" transform="translate(0,0)"/>
<path d="" fill="#0B96F6" transform="translate(0,0)"/>
<path d="" fill="#0E8DEE" transform="translate(0,0)"/>
<path d="" fill="#109AF3" transform="translate(0,0)"/>
<path d="" fill="#0E99F4" transform="translate(0,0)"/>
<path d="" fill="#0B8AE6" transform="translate(0,0)"/>
<path d="" fill="#0B88E3" transform="translate(0,0)"/>
<path d="" fill="#109FF5" transform="translate(0,0)"/>
<path d="" fill="#0F88E6" transform="translate(0,0)"/>
<path d="" fill="#099FF9" transform="translate(0,0)"/>
<path d="" fill="#0C9DFA" transform="translate(0,0)"/>
<path d="" fill="#0B9EF8" transform="translate(0,0)"/>
<path d="" fill="#0D97FA" transform="translate(0,0)"/>
<path d="" fill="#0A97F7" transform="translate(0,0)"/>
<path d="" fill="#0B95FA" transform="translate(0,0)"/>
<path d="" fill="#0B86E7" transform="translate(0,0)"/>
<path d="" fill="#07B3ED" transform="translate(0,0)"/>
<path d="" fill="#0E8BEE" transform="translate(0,0)"/>
<path d="" fill="#0C8AEE" transform="translate(0,0)"/>
<path d="" fill="#0C8DF0" transform="translate(0,0)"/>
<path d="" fill="#0CB1EA" transform="translate(0,0)"/>
<path d="" fill="#07AAF5" transform="translate(0,0)"/>
<path d="" fill="#0BA9F6" transform="translate(0,0)"/>
<path d="" fill="#00EBCC" transform="translate(0,0)"/>
<path d="" fill="#09A4F7" transform="translate(0,0)"/>
<path d="" fill="#08A3F2" transform="translate(0,0)"/>
<path d="" fill="#08A3F8" transform="translate(0,0)"/>
<path d="" fill="#0BA1F4" transform="translate(0,0)"/>
<path d="" fill="#0A9FF9" transform="translate(0,0)"/>
<path d="" fill="#089EF7" transform="translate(0,0)"/>
<path d="" fill="#0C8CF0" transform="translate(0,0)"/>
<path d="" fill="#099DF7" transform="translate(0,0)"/>
<path d="" fill="#0A9DF9" transform="translate(0,0)"/>
<path d="" fill="#098AED" transform="translate(0,0)"/>
<path d="" fill="#0B8CEF" transform="translate(0,0)"/>
<path d="" fill="#05A9F3" transform="translate(0,0)"/>
<path d="" fill="#0D8CF0" transform="translate(0,0)"/>
<path d="" fill="#099AF8" transform="translate(0,0)"/>
<path d="" fill="#06A6F3" transform="translate(0,0)"/>
<path d="" fill="#088BED" transform="translate(0,0)"/>
<path d="" fill="#09B2ED" transform="translate(0,0)"/>
<path d="" fill="#05B7F1" transform="translate(0,0)"/>
<path d="" fill="#0A8CF0" transform="translate(0,0)"/>
<path d="" fill="#06B2F1" transform="translate(0,0)"/>
<path d="" fill="#0795FC" transform="translate(0,0)"/>
<path d="" fill="#0896FA" transform="translate(0,0)"/>
<path d="" fill="#07ACF0" transform="translate(0,0)"/>
<path d="" fill="#0C8CF0" transform="translate(0,0)"/>
<path d="" fill="#0B8BF0" transform="translate(0,0)"/>
<path d="" fill="#0895FC" transform="translate(0,0)"/>
<path d="" fill="#0998FA" transform="translate(0,0)"/>
<path d="" fill="#0B8EF1" transform="translate(0,0)"/>
<path d="" fill="#0ABAEB" transform="translate(0,0)"/>
<path d="" fill="#08AFEE" transform="translate(0,0)"/>
<path d="" fill="#0B8EF0" transform="translate(0,0)"/>
<path d="" fill="#05AFEF" transform="translate(0,0)"/>
<path d="" fill="#0A8BEE" transform="translate(0,0)"/>
<path d="" fill="#03B5F0" transform="translate(0,0)"/>
<path d="" fill="#05B5EE" transform="translate(0,0)"/>
<path d="" fill="#05B5F0" transform="translate(0,0)"/>
<path d="" fill="#0696FC" transform="translate(0,0)"/>
<path d="" fill="#04B9F3" transform="translate(0,0)"/>
<path d="" fill="#07B1F1" transform="translate(0,0)"/>
<path d="" fill="#0D8DF0" transform="translate(0,0)"/>
<path d="" fill="#0997FB" transform="translate(0,0)"/>
<path d="" fill="#0794FC" transform="translate(0,0)"/>
<path d="" fill="#0792FE" transform="translate(0,0)"/>
<path d="" fill="#0795F9" transform="translate(0,0)"/>
<path d="" fill="#09AFEE" transform="translate(0,0)"/>
<path d="" fill="#0895FC" transform="translate(0,0)"/>
<path d="" fill="#0494FB" transform="translate(0,0)"/>
<path d="" fill="#0B88EB" transform="translate(0,0)"/>
<path d="" fill="#0496FA" transform="translate(0,0)"/>
<path d="" fill="#0E8EEE" transform="translate(0,0)"/>
<path d="" fill="#0B89EF" transform="translate(0,0)"/>
<path d="" fill="#0693FC" transform="translate(0,0)"/>
<path d="" fill="#0B86E6" transform="translate(0,0)"/>
<path d="" fill="#0898FD" transform="translate(0,0)"/>
<path d="" fill="#0699FD" transform="translate(0,0)"/>
<path d="" fill="#0799FD" transform="translate(0,0)"/>
<path d="" fill="#0798FE" transform="translate(0,0)"/>
<path d="" fill="#079AFE" transform="translate(0,0)"/>
<path d="" fill="#0698FE" transform="translate(0,0)"/>
<path d="" fill="#0798FF" transform="translate(0,0)"/>
<path d="" fill="#0996FB" transform="translate(0,0)"/>
<path d="" fill="#0795FC" transform="translate(0,0)"/>
<path d="" fill="#0895FD" transform="translate(0,0)"/>
<path d="" fill="#0793FB" transform="translate(0,0)"/>
<path d="" fill="#0794FC" transform="translate(0,0)"/>
<path d="" fill="#0893FB" transform="translate(0,0)"/>
<path d="" fill="#0897FA" transform="translate(0,0)"/>
<path d="" fill="#0997FB" transform="translate(0,0)"/>
<path d="" fill="#0996F9" transform="translate(0,0)"/>
<path d="" fill="#0997FB" transform="translate(0,0)"/>
<path d="" fill="#0A96FA" transform="translate(0,0)"/>
<path d="" fill="#0A97FC" transform="translate(0,0)"/>
<path d="" fill="#0797FA" transform="translate(0,0)"/>
<path d="" fill="#0899FB" transform="translate(0,0)"/>
<path d="" fill="#0898FC" transform="translate(0,0)"/>
<path d="" fill="#0896FB" transform="translate(0,0)"/>
<path d="" fill="#0797FB" transform="translate(0,0)"/>
<path d="" fill="#0897FC" transform="translate(0,0)"/>
<path d="" fill="#0695FC" transform="translate(0,0)"/>
<path d="" fill="#0895FC" transform="translate(0,0)"/>
<path d="" fill="#0796FC" transform="translate(0,0)"/>
<path d="" fill="#0895FA" transform="translate(0,0)"/>
<path d="" fill="#0897FC" transform="translate(0,0)"/>
<path d="" fill="#0895FB" transform="translate(0,0)"/>
<path d="" fill="#0897FD" transform="translate(0,0)"/>
<path d="" fill="#0796FE" transform="translate(0,0)"/>
<path d="" fill="#0E81E2" transform="translate(0,0)"/>
<path d="" fill="#0D83E0" transform="translate(0,0)"/>
<path d="" fill="#1185E4" transform="translate(0,0)"/>
<path d="" fill="#0C88EC" transform="translate(0,0)"/>
<path d="" fill="#0D84E4" transform="translate(0,0)"/>
<path d="" fill="#0D84E5" transform="translate(0,0)"/>
<path d="" fill="#0C85E5" transform="translate(0,0)"/>
<path d="" fill="#0C89EA" transform="translate(0,0)"/>
<path d="" fill="#0A8AEB" transform="translate(0,0)"/>
<path d="" fill="#0B8EED" transform="translate(0,0)"/>
<path d="" fill="#0E8DEC" transform="translate(0,0)"/>
<path d="" fill="#0D86E9" transform="translate(0,0)"/>
<path d="" fill="#0D88E8" transform="translate(0,0)"/>
<path d="" fill="#0B87E7" transform="translate(0,0)"/>
<path d="" fill="#0987EA" transform="translate(0,0)"/>
<path d="" fill="#0B87EA" transform="translate(0,0)"/>
<path d="" fill="#0C89EA" transform="translate(0,0)"/>
<path d="" fill="#0C89E8" transform="translate(0,0)"/>
<path d="" fill="#0B89E9" transform="translate(0,0)"/>
<path d="" fill="#0C89EC" transform="translate(0,0)"/>
<path d="" fill="#0C89EE" transform="translate(0,0)"/>
<path d="" fill="#0C8BEB" transform="translate(0,0)"/>
<path d="" fill="#0C89EC" transform="translate(0,0)"/>
<path d="" fill="#0B88EA" transform="translate(0,0)"/>
<path d="" fill="#0C89EC" transform="translate(0,0)"/>
<path d="" fill="#0C86E7" transform="translate(0,0)"/>
<path d="" fill="#0D85E8" transform="translate(0,0)"/>
</svg>
